<svg width="250" height="189" viewBox="0 0 250 189" fill="none" xmlns="http://www.w3.org/2000/svg">
<g clip-path="url(#clip0)">
<path opacity="0.1" d="M223.89 188.1C235.981 188.1 245.784 185.675 245.784 182.683C245.784 179.692 235.981 177.267 223.89 177.267C211.798 177.267 201.996 179.692 201.996 182.683C201.996 185.675 211.798 188.1 223.89 188.1Z" fill="#215E98"/>
<path opacity="0.1" d="M30.6262 189.002C42.7177 189.002 52.5198 186.577 52.5198 183.586C52.5198 180.594 42.7177 178.169 30.6262 178.169C18.5347 178.169 8.73254 180.594 8.73254 183.586C8.73254 186.577 18.5347 189.002 30.6262 189.002Z" fill="#215E98"/>
<path d="M149.75 51.0046C149.75 51.0046 146.673 49.754 136.888 54.2506C127.104 58.7472 125.875 58.1734 123.347 57.4856C120.819 56.7979 119.41 56.6358 116.685 52.8861C116.685 52.8861 114.769 42.4867 112.917 40.8747C111.065 39.2626 103.185 41.7924 103.185 41.7924C103.185 41.7924 93.7396 43.9629 91.9397 31.3207C91.9397 31.3207 93.2169 21.7909 91.4783 18.8669C91.4783 18.8669 94.9774 20.3848 100.782 17.936C106.586 15.4873 111.211 20.5644 111.211 20.5644C111.211 20.5644 112.672 24.3535 112.523 26.6117C112.375 28.8698 113.295 29.7175 116.06 28.6267C116.06 28.6267 117.416 26.6927 115.493 23.4971C113.571 20.3015 112.2 17.9185 112.738 15.4369C113.276 12.9554 114.815 9.52324 119.771 7.79293C124.727 6.06262 131.458 5.73846 134.69 4.39145C137.923 3.04444 138.704 2.16833 138.704 2.16833C138.704 2.16833 136.711 4.17024 141.402 12.6268C146.093 21.0834 143.101 24.7565 143.101 24.7565C143.101 24.7565 140.608 30.7053 129.608 30.2322C129.608 30.2322 119.008 30.6199 124.797 35.123C124.797 35.123 128.499 34.3674 134.032 32.6064C139.565 30.8455 143.561 38.1149 144.551 43.1744C145.542 48.234 149.75 51.0046 149.75 51.0046Z" fill="#215E98"/>
<path d="M135.497 8.58809L135.556 8.57275C135.981 10.187 131.242 16.6767 127.194 21.8304L127.145 21.7932C132.86 14.5193 135.828 9.82997 135.497 8.58809Z" fill="#444053"/>
<path d="M127.231 21.6858L127.255 21.7515C124.02 25.8714 119.953 30.7863 116.696 34.4266C116.386 34.7748 116.077 35.1384 115.78 35.5107L115.688 35.4341C115.985 35.0617 116.296 34.696 116.606 34.3389C119.861 30.7097 123.998 25.8035 127.231 21.6858Z" fill="#444053"/>
<path d="M115.767 35.3378L115.83 35.4473C109.903 42.8569 109.512 54.3624 109.488 54.4631L108.237 53.0176C108.263 52.9168 109.798 42.7978 115.767 35.3378Z" fill="#444053"/>
<path d="M142.876 46.9855C142.876 46.9855 135.878 43.3474 130.443 44.6528C125.009 45.9582 112.729 40.0401 112.729 40.0401C112.729 40.0401 107.522 37.92 106.476 35.5063C106.476 35.5063 102.905 31.7259 102.702 29.7678C102.498 27.8097 99.0211 22.8904 96.7532 22.6998" stroke="#444053" stroke-miterlimit="10"/>
<path d="M141.866 50.4877C141.866 50.4877 138.34 48.1135 138.756 45.3472" stroke="#444053" stroke-miterlimit="10"/>
<path d="M136.466 53.5563C136.466 53.5563 131.436 51.7252 130.929 44.5521" stroke="#444053" stroke-miterlimit="10"/>
<path d="M128.346 55.4136C128.346 55.4136 123.535 51.4164 125.133 44.4338" stroke="#444053" stroke-miterlimit="10"/>
<path d="M118.588 53.46C118.588 53.46 115.384 46.7337 118.234 42.3575" stroke="#444053" stroke-miterlimit="10"/>
<path d="M142.959 42.5525C142.959 42.5525 139.318 43.7089 140.099 45.6189" stroke="#444053" stroke-miterlimit="10"/>
<path d="M138.559 35.9357C138.559 35.9357 133.689 37.4842 133.573 44.3835" stroke="#444053" stroke-miterlimit="10"/>
<path d="M131.78 34.3434C131.78 34.3434 127.349 39.819 127.675 44.8019" stroke="#444053" stroke-miterlimit="10"/>
<path d="M124.012 36.4919C124.012 36.4919 119.609 40.706 120.171 43.0518" stroke="#444053" stroke-miterlimit="10"/>
<path d="M121.357 35.0026C121.357 35.0026 117.228 35.745 116.65 34.3871" stroke="#444053" stroke-miterlimit="10"/>
<path d="M115.992 30.011C115.992 30.011 118.078 32.7773 118.616 32.1574" stroke="#444053" stroke-miterlimit="10"/>
<path d="M136.67 28.2609C136.67 28.2609 126.264 29.0122 123.907 25.8757" stroke="#444053" stroke-miterlimit="10"/>
<path d="M113.803 16.0699C113.803 16.0699 118.686 26.5679 122.231 27.8974" stroke="#444053" stroke-miterlimit="10"/>
<path d="M118.925 11.0696C118.925 11.0696 121.925 20.7265 125.641 23.7403" stroke="#444053" stroke-miterlimit="10"/>
<path d="M141.05 20.2928C141.05 20.2928 133.135 23.6943 128.383 20.2534" stroke="#444053" stroke-width="0.75" stroke-miterlimit="10"/>
<path d="M125.975 9.01074C125.975 9.01074 127.784 16.1094 130.22 17.8244" stroke="#444053" stroke-width="0.75" stroke-miterlimit="10"/>
<path d="M139.854 12.3422C139.854 12.3422 135.408 14.0287 133.746 12.7364" stroke="#444053" stroke-width="0.75" stroke-miterlimit="10"/>
<path d="M112.182 32.3304C112.182 32.3304 112.182 38.5179 110.5 38.9582" stroke="#444053" stroke-miterlimit="10"/>
<path d="M98.4328 40.3469C98.4328 40.3469 105.112 40.9207 108.193 37.4689" stroke="#444053" stroke-miterlimit="10"/>
<path d="M110.459 25.0216C110.459 25.0216 108.843 31.2967 104.384 32.9876" stroke="#444053" stroke-miterlimit="10"/>
<path d="M94.4263 33.7366C94.4263 33.7366 99.1545 35.3837 103.22 31.1915" stroke="#444053" stroke-miterlimit="10"/>
<path d="M105.201 19.627C105.201 19.627 104.764 24.9559 101.862 27.4506" stroke="#444053" stroke-miterlimit="10"/>
<path d="M94.6013 25.6151C94.6013 25.6151 98.5247 25.6436 99.4432 24.3623" stroke="#444053" stroke-miterlimit="10"/>
<path opacity="0.1" d="M129.461 30.1074C113.847 32.716 98.2076 31.312 83.1525 29.3671C68.0975 27.4221 53.0775 24.9384 37.4298 25.4246C27.3698 25.74 16.1791 27.72 9.21803 33.7958C2.52156 39.6416 1.56367 47.6339 1.62709 54.8618C1.67521 60.298 2.18477 65.9292 5.86105 70.3009C8.41323 73.3344 12.3148 75.5378 15.265 78.3436C25.5437 88.1078 22.6285 103.234 16.1201 116.042C13.0583 122.052 9.31644 127.951 7.26289 134.112C5.20933 140.273 5.00594 146.91 8.87249 152.011C12.7084 157.068 20.0457 159.981 27.6803 161.543C43.1837 164.712 60.3907 163.076 77.0334 160.8C113.871 155.739 150.297 147.552 186.618 139.38C200.061 136.357 213.563 133.317 226.497 128.866C233.679 126.4 240.985 123.297 245.585 118.388C251.421 112.157 251.474 103.556 245.707 98.3385C236.032 89.5774 214.388 91.2245 206.867 81.2544C202.725 75.7788 204.411 68.4151 207.575 61.9429C214.355 48.0566 227.641 34.4222 225.727 20.4681C224.415 10.8835 215.146 2.85833 202.834 0.639596C189.931 -1.68427 173.439 2.19687 166.141 11.7267C158.627 21.5654 143.248 27.8076 129.461 30.1074Z" fill="#215E98"/>
<path d="M221.786 32.8781H19.4158C17.9073 32.8781 16.6843 34.1028 16.6843 35.6137V148.051C16.6843 149.562 17.9073 150.787 19.4158 150.787H221.786C223.295 150.787 224.518 149.562 224.518 148.051V35.6137C224.518 34.1028 223.295 32.8781 221.786 32.8781Z" fill="url(#paint0_linear)"/>
<path d="M221.48 34.536H19.746C18.2375 34.536 17.0145 35.7608 17.0145 37.2717V147.659C17.0145 149.17 18.2375 150.394 19.746 150.394H221.48C222.988 150.394 224.211 149.17 224.211 147.659V37.2717C224.211 35.7608 222.988 34.536 221.48 34.536Z" fill="white"/>
<path d="M221.48 34.536H19.746C18.2375 34.536 17.0145 35.7608 17.0145 37.2717V147.659C17.0145 149.17 18.2375 150.394 19.746 150.394H221.48C222.988 150.394 224.211 149.17 224.211 147.659V37.2717C224.211 35.7608 222.988 34.536 221.48 34.536Z" fill="white"/>
<path opacity="0.04" d="M221.48 34.536H19.746C18.2375 34.536 17.0145 35.7608 17.0145 37.2717V147.659C17.0145 149.17 18.2375 150.394 19.746 150.394H221.48C222.988 150.394 224.211 149.17 224.211 147.659V37.2717C224.211 35.7608 222.988 34.536 221.48 34.536Z" fill="#5A5773"/>
<path d="M223.159 33.2065H18.0577C17.7787 33.2065 17.5112 33.3175 17.3139 33.5151C17.1166 33.7127 17.0058 33.9807 17.0058 34.2601V38.7151H224.203V34.2688C224.204 34.1305 224.178 33.9932 224.126 33.865C224.074 33.7367 223.998 33.6199 223.901 33.5213C223.804 33.4227 223.689 33.3441 223.561 33.2901C223.434 33.2361 223.298 33.2077 223.159 33.2065Z" fill="#5A5773"/>
<path d="M21.1522 37.3834C21.9373 37.3834 22.5738 36.746 22.5738 35.9597C22.5738 35.1734 21.9373 34.536 21.1522 34.536C20.3672 34.536 19.7307 35.1734 19.7307 35.9597C19.7307 36.746 20.3672 37.3834 21.1522 37.3834Z" fill="white"/>
<path d="M24.9794 37.3834C25.7645 37.3834 26.401 36.746 26.401 35.9597C26.401 35.1734 25.7645 34.536 24.9794 34.536C24.1944 34.536 23.5579 35.1734 23.5579 35.9597C23.5579 36.746 24.1944 37.3834 24.9794 37.3834Z" fill="white"/>
<path d="M28.8066 37.3834C29.5917 37.3834 30.2281 36.746 30.2281 35.9597C30.2281 35.1734 29.5917 34.536 28.8066 34.536C28.0215 34.536 27.3851 35.1734 27.3851 35.9597C27.3851 36.746 28.0215 37.3834 28.8066 37.3834Z" fill="white"/>
<path d="M201.425 64.363H33.1127C31.882 64.363 30.8842 65.3623 30.8842 66.5949V148.16C30.8842 149.393 31.882 150.392 33.1127 150.392H201.425C202.656 150.392 203.654 149.393 203.654 148.16V66.5949C203.654 65.3623 202.656 64.363 201.425 64.363Z" fill="white"/>
<path opacity="0.2" d="M72.4102 44.5609H24.4021C23.9359 44.5609 23.5579 44.9394 23.5579 45.4064V48.9392C23.5579 49.4062 23.9359 49.7847 24.4021 49.7847H72.4102C72.8764 49.7847 73.2544 49.4062 73.2544 48.9392V45.4064C73.2544 44.9394 72.8764 44.5609 72.4102 44.5609Z" fill="#5A5773"/>
<path opacity="0.2" d="M166.121 74.3485H118.113C117.647 74.3485 117.269 74.727 117.269 75.1939V78.7268C117.269 79.1938 117.647 79.5723 118.113 79.5723H166.121C166.588 79.5723 166.966 79.1938 166.966 78.7268V75.1939C166.966 74.727 166.588 74.3485 166.121 74.3485Z" fill="#215E98"/>
<path opacity="0.2" d="M194.025 88.9751H118.113C117.647 88.9751 117.269 89.3536 117.269 89.8205V93.3534C117.269 93.8204 117.647 94.1989 118.113 94.1989H194.025C194.491 94.1989 194.869 93.8204 194.869 93.3534V89.8205C194.869 89.3536 194.491 88.9751 194.025 88.9751Z" fill="#215E98"/>
<path opacity="0.2" d="M194.025 97.5171H118.113C117.647 97.5171 117.269 97.8956 117.269 98.3625V101.895C117.269 102.362 117.647 102.741 118.113 102.741H194.025C194.491 102.741 194.869 102.362 194.869 101.895V98.3625C194.869 97.8956 194.491 97.5171 194.025 97.5171Z" fill="#215E98"/>
<path opacity="0.2" d="M194.025 106.059H118.113C117.647 106.059 117.269 106.438 117.269 106.905V110.437C117.269 110.904 117.647 111.283 118.113 111.283H194.025C194.491 111.283 194.869 110.904 194.869 110.437V106.905C194.869 106.438 194.491 106.059 194.025 106.059Z" fill="#215E98"/>
<path opacity="0.2" d="M194.025 114.601H118.113C117.647 114.601 117.269 114.98 117.269 115.447V118.98C117.269 119.446 117.647 119.825 118.113 119.825H194.025C194.491 119.825 194.869 119.446 194.869 118.98V115.447C194.869 114.98 194.491 114.601 194.025 114.601Z" fill="#215E98"/>
<path opacity="0.2" d="M194.025 124.019H41.0951C40.6289 124.019 40.251 124.398 40.251 124.865V128.398C40.251 128.865 40.6289 129.243 41.0951 129.243H194.025C194.491 129.243 194.869 128.865 194.869 128.398V124.865C194.869 124.398 194.491 124.019 194.025 124.019Z" fill="#215E98"/>
<path opacity="0.2" d="M194.025 132.561H41.0951C40.6289 132.561 40.251 132.94 40.251 133.407V136.94C40.251 137.407 40.6289 137.785 41.0951 137.785H194.025C194.491 137.785 194.869 137.407 194.869 136.94V133.407C194.869 132.94 194.491 132.561 194.025 132.561Z" fill="#215E98"/>
<path opacity="0.2" d="M194.025 141.103H41.0951C40.6289 141.103 40.251 141.482 40.251 141.949V145.482C40.251 145.949 40.6289 146.327 41.0951 146.327H194.025C194.491 146.327 194.869 145.949 194.869 145.482V141.949C194.869 141.482 194.491 141.103 194.025 141.103Z" fill="#215E98"/>
<path d="M159.495 144.557C159.495 144.557 160.792 146.255 158.896 148.82C157 151.384 155.438 153.548 156.07 155.147C156.07 155.147 158.928 150.386 161.258 150.329C163.587 150.272 162.056 147.42 159.495 144.557Z" fill="#215E98"/>
<path opacity="0.1" d="M159.495 144.557C159.608 144.721 159.697 144.901 159.76 145.09C162.032 147.762 163.241 150.256 161.059 150.318C159.025 150.377 156.584 154.019 156 154.937C156.018 155.012 156.042 155.085 156.07 155.156C156.07 155.156 158.928 150.394 161.258 150.337C163.587 150.281 162.056 147.42 159.495 144.557Z" fill="black"/>
<path d="M161.905 146.721C161.905 147.319 161.839 147.803 161.756 147.803C161.673 147.803 161.608 147.319 161.608 146.721C161.608 146.123 161.691 146.406 161.774 146.406C161.857 146.406 161.905 146.123 161.905 146.721Z" fill="#FFD037"/>
<path d="M162.734 147.435C162.209 147.72 161.752 147.893 161.712 147.821C161.673 147.749 162.067 147.457 162.587 147.164C163.108 146.87 162.904 147.085 162.944 147.164C162.983 147.243 163.256 147.149 162.734 147.435Z" fill="#FFD037"/>
<path d="M152.645 144.557C152.645 144.557 151.348 146.255 153.242 148.82C155.136 151.384 156.702 153.548 156.07 155.147C156.07 155.147 153.21 150.386 150.883 150.329C148.556 150.272 150.084 147.42 152.645 144.557Z" fill="#215E98"/>
<path opacity="0.1" d="M152.645 144.557C152.531 144.721 152.441 144.9 152.379 145.09C150.108 147.762 148.899 150.256 151.082 150.318C153.116 150.377 155.554 154.019 156.138 154.937C156.12 155.012 156.098 155.085 156.07 155.156C156.07 155.156 153.21 150.394 150.883 150.337C148.556 150.281 150.084 147.42 152.645 144.557Z" fill="black"/>
<path d="M150.233 146.721C150.233 147.319 150.301 147.803 150.384 147.803C150.467 147.803 150.533 147.319 150.533 146.721C150.533 146.123 150.45 146.41 150.369 146.41C150.288 146.41 150.233 146.123 150.233 146.721Z" fill="#FFD037"/>
<path d="M149.406 147.435C149.931 147.72 150.388 147.893 150.428 147.821C150.467 147.749 150.074 147.457 149.553 147.164C149.032 146.87 149.236 147.085 149.197 147.164C149.157 147.243 148.882 147.149 149.406 147.435Z" fill="#FFD037"/>
<path opacity="0.1" d="M156.07 168.138C163.559 168.138 169.629 167.205 169.629 166.055C169.629 164.904 163.559 163.972 156.07 163.972C148.582 163.972 142.511 164.904 142.511 166.055C142.511 167.205 148.582 168.138 156.07 168.138Z" fill="#215E98"/>
<path d="M163.053 152.858L162.987 153.388L162.898 154.138L162.858 154.451L162.769 155.2L162.729 155.513L162.638 156.26L161.601 164.78C161.507 165.54 160.267 166.134 158.758 166.134H153.374C151.876 166.134 150.638 165.54 150.546 164.78L149.505 156.266L149.415 155.52L149.376 155.206L149.284 154.457L149.247 154.144L149.155 153.395L149.089 152.865C149.039 152.427 149.71 152.072 150.557 152.072H161.583C162.43 152.066 163.101 152.427 163.053 152.858Z" fill="#65617D"/>
<path d="M162.983 153.389L162.893 154.138H149.247L149.155 153.389H162.983Z" fill="#9D9CB5"/>
<path d="M162.854 154.449L162.764 155.198H149.376L149.284 154.449H162.854Z" fill="#9D9CB5"/>
<path d="M162.725 155.511L162.633 156.26H149.505L149.415 155.511H162.725Z" fill="#9D9CB5"/>
<path opacity="0.2" d="M104.438 71.4508H42.1099C41.0832 71.4508 40.251 72.2843 40.251 73.3125V118.112C40.251 119.14 41.0832 119.974 42.1099 119.974H104.438C105.465 119.974 106.297 119.14 106.297 118.112V73.3125C106.297 72.2843 105.465 71.4508 104.438 71.4508Z" fill="#215E98"/>
<path d="M246.044 125.417C246.127 125.198 245.51 123.945 245.51 123.883C245.51 123.822 244.874 123.128 244.874 122.74C244.874 122.352 244.032 121.514 244.032 121.514C244.032 121.514 242.901 121.045 242.779 120.022C242.656 118.999 241.425 118.982 241.423 118.982C241.423 118.982 241.423 118.89 241.423 118.747C241.448 118.343 241.396 117.938 241.272 117.554C241.127 117.271 240.876 117.058 240.574 116.96C240.574 116.96 240.45 116.163 240.205 115.917C240.068 115.774 239.97 115.599 239.919 115.407C239.869 115.216 239.868 115.014 239.916 114.822C240.041 114.437 239.752 113.456 239.157 113.311C238.562 113.166 237.882 112.943 237.882 112.943L237.718 112.972L237.637 112.943C237.493 112.971 237.347 112.989 237.2 112.998C237.074 113.002 236.951 112.961 236.852 112.884C236.646 112.665 234.982 112.227 234.665 112.227C234.348 112.227 233.473 111.817 233.473 111.817C233.473 111.817 232.856 111.349 232.598 111.143C232.34 110.937 231.892 110.19 231.824 110.076V110.061C231.749 109.887 231.687 109.707 231.638 109.524C231.939 109.209 232.196 108.855 232.402 108.471C232.423 108.431 232.443 108.392 232.463 108.35C232.508 108.35 232.553 108.343 232.596 108.33L232.651 108.308C232.754 108.255 232.846 108.181 232.921 108.091C232.996 108.002 233.053 107.899 233.088 107.787C233.104 107.743 233.117 107.697 233.128 107.651C233.128 107.636 233.128 107.621 233.128 107.605L233.147 107.513C233.146 107.496 233.146 107.478 233.147 107.461L233.16 107.369V107.316C233.16 107.277 233.16 107.24 233.176 107.2C233.189 107.053 233.21 106.907 233.239 106.762C233.362 106.208 233.696 105.739 233.93 105.229C233.963 105.157 233.996 105.082 234.024 105.01C234.053 104.938 234.081 104.846 234.105 104.762L234.125 104.686C234.14 104.624 234.153 104.563 234.166 104.502C234.18 104.44 234.166 104.447 234.182 104.419C234.195 104.335 234.206 104.25 234.215 104.162C234.253 103.674 234.179 103.182 233.996 102.728C233.843 102.344 233.613 101.998 233.458 101.615C233.222 101.035 233.158 100.375 232.872 99.8212C232.638 99.3716 232.252 99.0198 231.784 98.8288C231.315 98.6378 230.794 98.62 230.313 98.7786C229.876 98.9451 229.478 99.2671 229.025 99.4116C228.417 99.6065 227.77 99.4598 227.14 99.3744C226.51 99.289 225.828 99.278 225.311 99.6898C224.73 100.163 224.572 101.052 224.025 101.571C223.807 101.79 223.512 101.928 223.269 102.13C223.098 102.267 222.967 102.447 222.888 102.651L222.875 102.693C222.869 102.711 222.865 102.729 222.862 102.747C222.857 102.768 222.853 102.788 222.851 102.809C222.85 102.823 222.85 102.836 222.851 102.85C222.847 102.887 222.847 102.923 222.851 102.96C222.854 102.994 222.859 103.029 222.866 103.063V103.091C222.866 103.12 222.882 103.148 222.893 103.177C222.904 103.205 222.893 103.188 222.893 103.192C222.893 103.196 222.917 103.256 222.93 103.286L222.949 103.332C222.949 103.345 222.949 103.358 222.967 103.369C223.045 103.522 223.109 103.681 223.157 103.845C223.183 103.949 223.176 104.058 223.138 104.158C223.086 104.272 223.011 104.374 222.919 104.458C222.51 104.884 222.194 105.39 221.992 105.945C221.967 106.009 221.945 106.073 221.926 106.136H221.954C222.013 106.153 222.073 106.165 222.134 106.173C222.168 106.175 222.202 106.175 222.237 106.173C222.377 106.181 222.518 106.171 222.656 106.142L222.761 106.116C222.904 106.079 223.043 106.028 223.177 105.965C223.177 106.006 223.177 106.048 223.177 106.09C223.177 106.131 223.177 106.136 223.177 106.16C223.178 107.064 223.431 107.949 223.908 108.717C224.384 109.485 225.065 110.104 225.873 110.505C225.873 110.549 225.884 110.593 225.891 110.637L225.904 110.748L225.849 110.696C225.849 110.696 225.48 110.512 225.13 111.042C224.873 111.39 224.525 111.659 224.124 111.819C224.124 111.819 220.384 112.411 220.24 112.901L218.49 113.004C218.49 113.004 217.874 113.085 217.812 114.373C217.751 115.661 217.423 115.782 217.423 115.782C217.423 115.782 216.704 117.05 216.767 117.702C216.775 117.902 216.727 118.099 216.629 118.272C216.531 118.446 216.386 118.588 216.211 118.684L216.131 119.849C216.131 119.849 215.453 119.746 215.256 120.543C215.177 120.965 215.002 121.364 214.744 121.706C214.744 121.706 213.613 122.648 213.552 123.443L212.852 123.881C212.852 123.881 211.23 123.513 210.86 122.861C210.86 122.861 210.816 122.817 210.746 122.753V122.738C210.504 122.519 209.99 122.028 210.068 122.14C210.117 122.242 210.128 122.358 210.101 122.468L209.981 122.335L209.657 121.976C209.657 121.976 207.033 119.514 205.502 119.319C205.482 119.279 205.382 118.881 205.119 119.133C204.902 119.333 204.728 119.575 204.609 119.845C204.49 120.116 204.427 120.408 204.426 120.703C204.424 120.999 204.484 121.291 204.601 121.562C204.717 121.834 204.889 122.078 205.104 122.28L207.562 124.578L207.625 124.624L208.153 125.303C208.063 125.522 207.989 125.723 207.934 125.912V125.931L207.894 126.05C207.89 126.062 207.886 126.076 207.884 126.089C207.87 126.128 207.859 126.166 207.849 126.203L207.829 126.269C207.829 126.282 207.829 126.295 207.829 126.308C207.77 126.514 207.733 126.672 207.715 126.759L207.577 126.715L207.711 126.775V126.794C207.711 126.823 207.711 126.838 207.711 126.838L207.838 126.893C208.557 127.206 212.148 128.785 212.332 129.024C212.516 129.263 213.893 130.067 215.127 129.412C216.36 128.757 216.625 127.758 216.625 127.758C216.625 127.758 217.817 126.102 217.858 125.857C217.9 125.612 218.823 125.327 218.823 125.327C218.823 125.327 218.906 128.062 218.433 129.066C217.961 130.069 217.078 134.5 217.078 134.5C217.136 134.491 217.194 134.491 217.252 134.5L217.2 134.756C217.272 134.742 217.346 134.742 217.419 134.756C217.353 135.26 216.981 137.603 216.981 137.603C216.981 137.603 216.859 138.665 216.653 139.033C216.448 139.401 216.435 141.322 216.435 141.322L216.104 142.711C216.104 142.711 216.148 142.807 216.229 142.95C216.45 143.422 216.773 143.84 217.174 144.174C217.147 144.392 217.091 144.606 217.008 144.809C216.88 145.12 216.824 145.455 216.844 145.79C216.844 145.79 216.496 147.363 216.535 147.812C216.575 148.261 216.316 149.365 216.316 149.365L215.947 152.92C215.947 152.92 215.702 156.004 215.824 156.842C215.883 157.5 215.855 158.163 215.741 158.814C215.741 158.814 215.988 161.245 215.927 161.51C215.866 161.775 215.558 162.92 215.741 163.553C215.925 164.186 215.824 165.923 215.824 165.923C215.824 165.923 215.947 168.212 216.091 168.948C216.168 169.505 216.154 170.071 216.05 170.624C216.05 170.624 215.905 172.196 215.844 172.196C215.783 172.196 215.249 173.278 216.336 174.34C217.423 175.403 216.749 175.238 216.749 175.238C216.749 175.238 215.875 174.8 215.988 175.69C216.085 176.524 216.22 176.307 216.233 176.283L216.028 176.956L216.172 176.975L216.054 177.118C215.93 177.277 215.791 177.424 215.638 177.556C215.479 177.712 215.383 177.923 215.372 178.147C215.372 178.147 213.852 179.803 212.435 180.64C211.689 181.078 211.046 181.452 210.766 181.763C210.512 182.039 210.547 182.263 211.079 182.438C212.187 182.806 214.14 182.99 215.536 182.519C216.372 182.242 217.124 181.757 217.723 181.111C217.723 181.111 218.597 180.659 219.472 180.824C220.347 180.988 222.062 179.864 222.062 179.864L222.029 179.575L221.939 178.739C221.881 178.668 221.839 178.587 221.814 178.5C221.789 178.412 221.782 178.32 221.795 178.23C221.805 177.983 221.781 177.735 221.723 177.494C221.707 177.413 221.692 177.332 221.677 177.258L221.834 177.227C221.834 177.227 221.631 176.187 222 175.981C222.37 175.775 222.265 173.101 222.265 173.101C222.265 173.101 221.795 172.488 221.548 172.387C221.301 172.286 221.526 171.016 221.57 170.854C221.613 170.691 221.939 167.522 221.939 167.522C221.939 167.522 221.814 166.523 221.978 166.094C222.142 165.665 221.773 164.009 221.773 164.009C221.739 163.933 221.73 163.848 221.749 163.767C221.767 163.686 221.812 163.613 221.876 163.56C222.094 163.315 222.02 161.129 222.02 161.129C222.02 161.129 222 160.034 222 159.738C222 159.442 222.245 158.411 222.473 158.065C222.7 157.719 222.554 156.634 222.554 156.634L222.567 156.553C222.567 156.523 222.567 156.483 222.584 156.437L222.602 156.328C222.702 155.729 222.836 155.137 223.004 154.554C223.271 153.697 223.579 152.186 223.579 152.186L225.489 147.197L225.51 147.137C225.51 147.137 226.385 148.771 226.385 150.285C226.385 150.285 226.604 152.103 226.551 152.593C226.499 153.084 226.694 155.39 226.694 155.39C226.694 155.39 226.96 158.7 226.96 158.842C226.96 158.985 227.291 161.538 227.496 161.928C227.702 162.318 227.291 163.501 227.166 163.624C227.041 163.746 227.207 166.749 227.207 166.749C227.207 166.749 226.899 169.119 226.838 169.61C226.777 170.1 226.53 171.979 226.735 172.715C226.941 173.451 226.858 173.552 226.858 173.552C226.858 173.552 227.599 174.31 227.166 174.371C227.009 174.406 226.861 174.473 226.732 174.569C226.603 174.666 226.496 174.788 226.418 174.929C226.34 175.07 226.293 175.226 226.281 175.387C226.268 175.547 226.289 175.709 226.344 175.861C226.601 176.608 226.903 177.34 227.249 178.051L227.59 177.979V178.222L227.614 179.439C227.614 179.439 227.759 180.602 227.676 180.87C227.616 181.062 227.533 181.978 227.494 182.458C227.479 182.633 227.47 182.749 227.47 182.749C227.47 182.749 227.47 183.831 229.751 183.505C232.032 183.178 232.441 182.278 232.441 182.278L232.458 182.166C232.491 181.96 232.566 181.522 232.627 181.277C232.708 180.951 231.971 179.479 231.971 179.479C231.971 179.479 231.848 178.478 231.643 178.254C231.556 178.122 231.5 177.973 231.476 177.816C231.459 177.733 231.441 177.648 231.428 177.565C231.48 177.571 231.531 177.579 231.581 177.591C231.581 177.591 231.457 176.877 231.931 176.651C232.406 176.426 232.279 175.957 232.218 175.753C232.157 175.549 232.402 174.404 232.402 174.404C232.367 174.29 232.364 174.168 232.392 174.053C232.421 173.937 232.481 173.831 232.566 173.747C232.854 173.46 233.079 171.458 233.079 171.458L233.121 163.735C233.121 163.735 233.265 162.366 233.101 161.814C232.937 161.262 232.773 160.2 232.999 159.913C233.224 159.626 233.018 158.301 233.018 158.301C233.018 158.301 233.018 155.502 233.327 154.797C233.635 154.091 233.532 149.709 233.532 149.709L233.613 146.829C233.613 146.829 234.284 146.193 234.127 142.886C234.842 142.84 235.658 142.814 235.772 142.915C235.99 143.099 237.456 144.038 238.319 143.445C238.676 143.199 239.019 142.934 239.345 142.65L238.982 136.517C239.201 136.859 239.345 137.084 239.345 137.084C239.345 136.228 241.77 133.448 241.77 133.448C241.77 133.448 244.03 130.526 244.522 130.18C245.014 129.834 245.98 127.99 245.98 127.99C246.123 127.64 246.288 127.299 246.475 126.969C246.702 126.621 245.963 125.64 246.044 125.417ZM240.745 127.561C240.128 127.622 238.833 129.033 238.814 129.339C238.769 129.542 238.675 129.73 238.54 129.887C238.54 129.764 238.521 129.639 238.51 129.512C238.365 127.705 238.208 125.506 238.291 125.294C238.413 124.926 238.372 123.27 238.372 123.27L238.396 123.237C238.809 124.521 240.095 126.032 240.095 126.032C240.095 126.032 240.314 126.689 240.59 126.704C240.865 126.72 240.745 127.561 240.745 127.561Z" fill="url(#paint1_linear)"/>
<path d="M207.809 127.094C207.809 127.094 208.559 123.152 210.967 123.152L212.73 126.781L211.555 127.592C211.555 127.592 209.003 127.662 207.809 127.094Z" fill="#65617D"/>
<path opacity="0.1" d="M212.73 126.77L211.555 127.581C211.555 127.581 209.76 127.638 208.476 127.322C208.247 127.271 208.024 127.198 207.809 127.103L207.822 127.04V127.027C207.932 126.532 208.084 126.049 208.277 125.581C208.352 125.404 208.435 125.222 208.527 125.04C208.879 124.361 209.375 123.693 210.057 123.364C210.307 123.238 210.58 123.163 210.86 123.145H210.967L211.007 123.226L211.601 124.453L212.73 126.77Z" fill="black"/>
<path d="M232.732 143.112C232.732 143.112 235.262 142.869 235.485 143.053C235.708 143.237 237.145 144.168 237.994 143.578C238.842 142.989 238.278 140.95 238.278 140.862C238.278 140.775 238.197 137.882 238.197 137.882L236.679 135.834L234.777 132.246L230.888 131.86L230.989 137.555L230.969 140.475L232.732 143.112Z" fill="#65617D"/>
<path opacity="0.1" d="M232.732 143.112C232.732 143.112 235.262 142.869 235.485 143.053C235.708 143.237 237.145 144.168 237.994 143.578C238.842 142.989 238.278 140.95 238.278 140.862C238.278 140.775 238.197 137.882 238.197 137.882L236.679 135.834L234.777 132.246L230.888 131.86L230.989 137.555L230.969 140.475L232.732 143.112Z" fill="black"/>
<path d="M210.462 123.04C210.462 123.04 210.259 125.513 208.712 125.555C208.712 125.555 208.275 125.292 207.689 124.852C206.337 123.838 204.19 121.89 204.785 120.079C205.635 117.484 209.764 122.269 209.764 122.269L210.084 122.626L210.462 123.04Z" fill="#FBBEBE"/>
<path opacity="0.1" d="M210.462 123.04C210.462 123.04 210.259 125.513 208.712 125.555C208.712 125.555 208.275 125.292 207.689 124.852L207.558 124.683C207.82 124.817 208.108 124.892 208.402 124.902C208.633 124.911 208.861 124.85 209.057 124.726C209.252 124.601 209.405 124.421 209.495 124.208C209.661 123.889 209.807 123.561 209.933 123.224C210.005 123.028 210.057 122.825 210.088 122.618L210.462 123.04Z" fill="black"/>
<path d="M209.793 127.521L209.447 127.083L208.282 125.581L207.689 124.812C207.95 124.946 208.238 125.021 208.531 125.031C208.762 125.041 208.991 124.98 209.186 124.856C209.382 124.732 209.535 124.551 209.624 124.337C209.787 124.019 209.929 123.691 210.051 123.356C210.243 122.808 210.239 122.528 210.171 122.431C210.103 122.335 210.609 122.799 210.84 123.027L210.952 123.132L210.993 123.215L211.604 124.398C211.605 124.415 211.605 124.432 211.604 124.449C211.647 124.821 211.844 127.184 209.793 127.521Z" fill="#E7EFFD"/>
<path d="M221.922 179.702C221.922 179.702 220.22 180.819 219.369 180.655C218.78 180.581 218.182 180.68 217.648 180.94C217.063 181.581 216.325 182.063 215.503 182.339C214.125 182.806 212.203 182.622 211.109 182.258C210.593 182.085 210.552 181.862 210.801 181.588C211.05 181.314 211.711 180.911 212.446 180.473C213.843 179.641 215.341 178.001 215.341 178.001C215.351 177.778 215.444 177.567 215.604 177.411C215.754 177.279 215.891 177.133 216.012 176.973C216.231 176.717 216.435 176.448 216.435 176.448L221.445 176.636C221.445 176.636 221.53 176.997 221.598 177.368C221.655 177.606 221.679 177.852 221.668 178.097C221.656 178.186 221.662 178.278 221.686 178.365C221.711 178.452 221.753 178.533 221.81 178.603L221.9 179.431L221.922 179.702Z" fill="#65617D"/>
<path d="M232.38 181.109C232.321 181.352 232.246 181.785 232.213 181.985C232.213 182.053 232.198 182.096 232.198 182.096C232.198 182.096 231.794 182.988 229.545 183.312C227.297 183.636 227.299 182.563 227.299 182.563L227.321 182.272C227.361 181.798 227.442 180.89 227.501 180.697C227.581 180.434 227.442 179.277 227.442 179.277L227.417 178.068L227.4 177.23L231.118 176.844C231.142 177.123 231.182 177.4 231.238 177.674C231.26 177.831 231.316 177.98 231.402 178.112C231.603 178.331 231.726 179.328 231.726 179.328C231.726 179.328 232.467 180.784 232.38 181.109Z" fill="#65617D"/>
<path opacity="0.1" d="M221.445 176.636C221.445 176.636 221.53 176.997 221.598 177.367C221.058 177.466 218.696 177.876 218.099 177.587C217.43 177.262 215.993 177.081 215.993 177.081L216.017 176.997C216.236 176.741 216.439 176.472 216.439 176.472L221.445 176.636Z" fill="black"/>
<path opacity="0.1" d="M231.251 177.681C230.309 177.521 228.238 177.9 227.424 178.075L227.406 177.236L231.124 176.851C231.15 177.13 231.193 177.407 231.251 177.681Z" fill="black"/>
<path d="M233.357 146.945L233.279 149.792C233.279 149.792 233.379 154.151 233.075 154.83C232.771 155.509 232.771 158.297 232.771 158.297C232.771 158.297 232.975 159.611 232.751 159.898C232.528 160.185 232.69 161.236 232.852 161.784C233.014 162.331 232.872 163.689 232.872 163.689L232.832 171.355C232.832 171.355 232.614 173.342 232.325 173.627C232.242 173.712 232.183 173.818 232.155 173.933C232.126 174.049 232.129 174.17 232.163 174.284C232.163 174.284 231.92 175.418 231.982 175.622C232.043 175.826 232.163 176.29 231.7 176.513C231.236 176.737 231.354 177.446 231.354 177.446C230.241 177.181 227.083 177.884 227.083 177.884C226.742 177.18 226.444 176.455 226.191 175.714C226.136 175.564 226.114 175.403 226.126 175.244C226.139 175.085 226.185 174.93 226.262 174.79C226.338 174.649 226.444 174.527 226.572 174.431C226.699 174.335 226.846 174.268 227.002 174.233C227.426 174.174 226.698 173.423 226.698 173.423C226.698 173.423 226.779 173.322 226.575 172.591C226.372 171.859 226.617 169.995 226.678 169.509C226.74 169.023 227.041 166.662 227.041 166.662C227.041 166.662 226.879 163.681 227.002 163.56C227.124 163.44 227.527 162.261 227.326 161.878C227.124 161.495 226.799 158.958 226.799 158.812C226.799 158.665 226.536 155.384 226.536 155.384C226.536 155.384 226.293 153.093 226.355 152.607C226.416 152.12 226.191 150.316 226.191 150.316C226.191 148.815 225.316 147.192 225.316 147.192L225.294 147.251L223.413 152.236C223.413 152.236 223.109 153.737 222.847 154.589C222.681 155.165 222.549 155.75 222.451 156.341L222.433 156.451L222.416 156.564L222.403 156.645C222.403 156.645 222.543 157.719 222.32 158.065C222.071 158.588 221.914 159.151 221.856 159.727C221.856 160.012 221.876 161.107 221.876 161.107C221.876 161.107 221.957 163.275 221.734 163.516C221.672 163.569 221.63 163.64 221.611 163.719C221.593 163.798 221.601 163.88 221.633 163.954C221.633 163.954 221.996 165.597 221.834 166.022C221.672 166.447 221.795 167.441 221.795 167.441C221.795 167.441 221.471 170.584 221.43 170.746C221.388 170.908 221.167 172.166 221.41 172.266C221.653 172.367 222.118 172.976 222.118 172.976C222.118 172.976 222.219 175.633 221.856 175.834C221.493 176.036 221.692 177.072 221.692 177.072C221.692 177.072 218.757 177.639 218.09 177.315C217.423 176.991 215.984 176.809 215.984 176.809L216.185 176.152C216.172 176.176 216.039 176.393 215.945 175.563C215.842 174.687 216.693 175.125 216.693 175.125C216.693 175.125 217.362 175.287 216.288 174.233C215.214 173.18 215.741 172.104 215.803 172.104C215.864 172.104 216.004 170.543 216.004 170.543C216.107 169.994 216.121 169.433 216.045 168.88C215.903 168.151 215.783 165.88 215.783 165.88C215.783 165.88 215.883 164.156 215.7 163.527C215.516 162.899 215.822 161.775 215.883 161.499C215.945 161.223 215.7 158.823 215.7 158.823C215.814 158.172 215.842 157.509 215.783 156.851C215.66 156.019 215.903 152.957 215.903 152.957L216.268 149.431C216.268 149.431 216.531 148.336 216.487 147.898C216.443 147.459 216.791 145.891 216.791 145.891C216.771 145.558 216.827 145.225 216.953 144.917C217.156 144.511 217.237 143.164 217.237 143.164L219.181 138.705L220.133 134.763L232.988 134.64C232.988 134.64 233.034 134.982 233.112 135.601C233.191 136.221 233.3 137.135 233.423 138.271C233.534 139.301 233.657 140.512 233.777 141.859C234.169 146.174 233.357 146.945 233.357 146.945Z" fill="#3F3D56"/>
<path d="M232.161 111.443L229.167 114.652C229.167 114.652 225.322 113.118 225.727 112.582C225.882 112.378 225.858 111.734 225.769 111.024C225.626 109.901 225.331 108.615 225.331 108.615C225.331 108.615 232.052 107.52 231.483 108.655C231.302 109.083 231.287 109.563 231.441 110.002C231.604 110.517 231.846 111.004 232.161 111.443Z" fill="#FBBEBE"/>
<path opacity="0.1" d="M231.474 108.644C231.269 109.06 231.17 109.099 231.299 109.546C230.425 110.49 229.303 111.517 227.912 111.517C227.168 111.518 226.434 111.346 225.769 111.013C225.626 109.89 225.331 108.604 225.331 108.604C225.331 108.604 232.043 107.509 231.474 108.644Z" fill="black"/>
<path d="M232.732 106.576C232.732 107.856 232.224 109.084 231.32 109.989C230.417 110.894 229.191 111.402 227.913 111.402C226.635 111.402 225.409 110.894 224.505 109.989C223.602 109.084 223.094 107.856 223.094 106.576C223.094 106.552 223.094 106.53 223.094 106.506C223.098 105.872 223.228 105.246 223.474 104.662C223.72 104.078 224.079 103.549 224.53 103.104C224.98 102.659 225.514 102.308 226.1 102.07C226.687 101.831 227.314 101.711 227.947 101.716C228.579 101.72 229.205 101.85 229.788 102.097C230.371 102.343 230.899 102.703 231.343 103.154C231.787 103.605 232.138 104.14 232.376 104.727C232.614 105.314 232.734 105.942 232.73 106.576H232.732Z" fill="#FBBEBE"/>
<path opacity="0.1" d="M233.429 138.411C232.791 138.411 230.665 138.433 228.29 138.473H228.262L227.476 138.486H227.452C224.636 138.53 221.86 137.98 220.745 138.083C218.377 138.302 221.596 135.893 221.596 135.893C223.361 136.321 225.176 136.504 226.991 136.438L227.673 136.403C229.825 136.28 231.988 136.079 233.119 135.746C233.198 136.368 233.307 137.279 233.429 138.411Z" fill="black"/>
<path d="M233.429 138.289C232.791 138.289 230.665 138.313 228.29 138.35H228.262L227.476 138.363H227.452C224.636 138.409 221.86 137.857 220.745 137.963C218.377 138.182 221.596 135.772 221.596 135.772C223.361 136.201 225.176 136.385 226.991 136.318L227.673 136.283C229.825 136.162 231.988 135.958 233.119 135.625C233.198 136.245 233.307 137.156 233.429 138.289Z" fill="#5F5D7E"/>
<path opacity="0.1" d="M226.617 112.781L222.899 114.533L220.023 136.795C220.023 136.795 221.725 136.024 222.696 136.51C223.667 136.997 226.663 136.552 226.663 136.552C226.663 136.552 228.85 136.429 229.174 136.675C229.497 136.92 233.305 135.661 233.305 135.661C233.305 135.661 233.994 134.127 233.467 133.875C232.94 133.624 233.628 131.247 233.628 131.247L233.305 115.188L232.649 113.121L230.899 112.065L229.119 113.484L228.268 113.607L226.617 112.781Z" fill="black"/>
<path d="M226.617 112.538L222.899 114.29L220.017 136.554C220.017 136.554 221.718 135.783 222.689 136.269C223.66 136.756 226.656 136.311 226.656 136.311C226.656 136.311 228.843 136.188 229.167 136.431C229.491 136.675 233.298 135.42 233.298 135.42C233.298 135.42 233.987 133.886 233.46 133.634C232.933 133.383 233.622 131.006 233.622 131.006L233.298 114.947L232.642 112.88L230.893 111.824L229.112 113.243L228.262 113.366L226.617 112.538Z" fill="#E7EFFD"/>
<path opacity="0.1" d="M226.556 113.572C226.556 113.572 227.63 114.849 227.61 115.105C227.59 115.361 227.549 115.999 227.549 115.999L226.739 117.639C226.739 117.639 226.302 119.687 226.302 120.114C226.302 120.541 225.593 124.23 225.593 124.23L224.725 129.913L223.651 137.36L224.745 139.246L226.042 138.151L227.763 124.891L228.126 122.276C228.126 122.276 228.511 117.571 228.511 117.085C228.47 116.494 228.397 115.905 228.292 115.322C228.292 115.322 228.557 114.104 229.65 113.821C230.744 113.539 229.567 113.76 229.567 113.76L228.942 113.254L228.395 113.473C228.395 113.473 226.879 113.004 226.556 113.572Z" fill="black"/>
<path d="M226.435 113.449C226.435 113.449 227.507 114.726 227.487 114.982C227.468 115.239 227.426 115.874 227.426 115.874L226.617 117.516C226.617 117.516 226.18 119.564 226.18 119.989C226.18 120.414 225.471 124.105 225.471 124.105L224.623 129.782L223.549 137.229L224.642 139.115L225.937 138.02L227.658 124.76L228.023 122.144C228.023 122.144 228.408 117.44 228.408 116.954C228.367 116.362 228.294 115.772 228.189 115.188C228.189 115.188 228.452 113.973 229.545 113.688C230.639 113.403 229.464 113.629 229.464 113.629L228.837 113.121L228.29 113.34C228.29 113.34 226.759 112.882 226.435 113.449Z" fill="#215E98"/>
<path opacity="0.1" d="M225.727 111.32C225.727 111.32 225.565 111.443 225.524 112.253C225.482 113.064 224.916 114.882 224.916 114.882C224.916 114.882 227.022 113.423 228.074 113.585L225.727 111.32Z" fill="black"/>
<path d="M225.727 111.077C225.727 111.077 225.565 111.2 225.524 112.01C225.482 112.82 224.916 114.638 224.916 114.638C224.916 114.638 227.022 113.18 228.074 113.342L225.727 111.077Z" fill="#E7EFFD"/>
<path opacity="0.1" d="M231.476 110.672L228.157 113.592C228.157 113.592 230.949 115.254 231.315 115.659C231.68 116.064 232.043 111.686 232.043 111.686L231.476 110.672Z" fill="black"/>
<path d="M231.597 110.429L228.277 113.348C228.277 113.348 231.072 115.011 231.435 115.416C231.798 115.821 232.163 111.443 232.163 111.443L231.597 110.429Z" fill="#E7EFFD"/>
<path opacity="0.1" d="M225.847 111.32C225.847 111.32 225.484 111.138 225.139 111.666C224.886 112.01 224.543 112.276 224.148 112.435C224.148 112.435 220.463 113.024 220.321 113.51L218.6 113.611C218.6 113.611 217.992 113.692 217.944 114.971C217.895 116.25 217.559 116.369 217.559 116.369C217.559 116.369 216.85 117.626 216.903 118.274C216.91 118.471 216.863 118.667 216.767 118.839C216.67 119.011 216.528 119.153 216.356 119.249L218.886 125.837C218.886 125.837 218.967 128.555 218.501 129.548C218.035 130.54 217.165 134.942 217.165 134.942C217.165 134.942 217.53 134.861 217.508 135.104C217.486 135.347 217.071 138.004 217.071 138.004C217.071 138.004 216.948 139.058 216.747 139.423C216.546 139.789 216.529 141.693 216.529 141.693L216.205 143.072C216.205 143.072 216.973 144.796 218.147 144.553C219.321 144.31 221.445 139.706 221.445 139.706L222.801 134.738L223.855 129.832L224.159 126.507L224.644 119.146L225.353 114.281C225.353 114.281 226.132 111.666 225.847 111.32Z" fill="black"/>
<path d="M225.727 111.077C225.727 111.077 225.362 110.895 225.018 111.423C224.765 111.767 224.421 112.033 224.026 112.192C224.026 112.192 220.34 112.781 220.198 113.267L218.479 113.368C218.479 113.368 217.871 113.449 217.81 114.726C217.749 116.003 217.425 116.126 217.425 116.126C217.425 116.126 216.717 117.383 216.769 118.031C216.777 118.228 216.731 118.424 216.634 118.596C216.538 118.768 216.395 118.91 216.222 119.006L218.761 125.603C218.761 125.603 218.842 128.321 218.377 129.313C217.911 130.305 217.04 134.708 217.04 134.708C217.04 134.708 217.406 134.627 217.386 134.87C217.366 135.113 216.948 137.768 216.948 137.768C216.948 137.768 216.828 138.823 216.625 139.187C216.421 139.55 216.406 141.458 216.406 141.458L216.082 142.838C216.082 142.838 216.852 144.562 218.027 144.316C219.201 144.071 221.327 139.472 221.327 139.472L222.683 134.504L223.735 129.598L224.026 126.26L224.511 118.898L225.22 114.034C225.22 114.034 226.009 111.423 225.727 111.077Z" fill="#65617D"/>
<path opacity="0.1" d="M212.73 126.77L211.555 127.581C211.555 127.581 209.76 127.638 208.476 127.322L207.82 127.031L207.689 126.974L207.824 127.018C208.346 127.204 208.912 127.224 209.445 127.075C211.107 126.514 210.923 123.767 210.858 123.145C210.858 123.082 210.847 123.042 210.845 123.027V123.042C210.868 123.08 210.894 123.116 210.921 123.15L210.996 123.229L211.604 124.398C211.605 124.415 211.605 124.432 211.604 124.449L212.73 126.77Z" fill="black"/>
<path d="M216.798 118.844L216.231 119.006L216.15 120.16C216.15 120.16 215.494 120.059 215.3 120.85C215.222 121.269 215.049 121.665 214.794 122.006C214.794 122.006 213.681 122.939 213.62 123.73L212.931 124.155C212.931 124.155 211.332 123.789 210.963 123.141C210.963 123.141 211.693 128.371 207.805 127.083C207.805 127.083 212.157 128.989 212.36 129.254C212.564 129.519 213.891 130.288 215.114 129.639C216.336 128.991 216.592 127.997 216.592 127.997C216.592 127.997 217.766 126.354 217.806 126.111C217.845 125.868 218.757 125.583 218.757 125.583L220.507 121.367L216.798 118.844Z" fill="#65617D"/>
<path opacity="0.1" d="M231.011 113.105L231.597 110.429C231.597 110.429 231.861 111.305 232.124 111.504L232.999 112.161C232.999 112.161 233.873 112.566 234.173 112.566C234.473 112.566 236.117 113.004 236.318 113.223C236.52 113.443 237.331 113.285 237.331 113.285C237.331 113.285 237.998 113.504 238.586 113.651C239.175 113.797 239.461 114.765 239.334 115.151C239.285 115.343 239.286 115.544 239.336 115.735C239.385 115.927 239.483 116.102 239.618 116.246C239.861 116.489 239.984 117.28 239.984 117.28C240.281 117.377 240.528 117.588 240.67 117.867C240.874 118.305 240.813 119.286 240.813 119.286L237.797 123.544C237.797 123.544 237.836 125.187 237.716 125.552C237.596 125.918 238.14 132.123 238.14 132.123L238.768 142.788C238.446 143.071 238.108 143.335 237.755 143.578C237.574 143.659 237.392 139.807 237.392 139.667C237.392 139.526 232.714 132.658 232.714 132.658C232.714 132.658 232.087 131.644 232.087 131.42C232.087 131.197 231.5 129.149 231.5 129.149L230.61 125.206L231.011 113.105Z" fill="black"/>
<path d="M241.06 119.056C241.06 119.196 241.06 119.288 241.06 119.288L238.046 123.542C238.046 123.542 238.088 125.185 237.965 125.55C237.895 125.769 238.048 127.944 238.184 129.736C238.287 131.028 238.381 132.119 238.381 132.119L238.647 136.642L239.008 142.775C238.686 143.058 238.348 143.322 237.996 143.565C237.814 143.646 237.633 139.794 237.633 139.651C237.633 139.509 232.955 132.642 232.955 132.642C232.955 132.642 232.327 131.628 232.327 131.405C232.327 131.181 231.741 129.134 231.741 129.134L230.851 125.191L231.256 113.107L231.599 110.431C231.599 110.431 232.106 111.307 232.369 111.504L233.244 112.174C233.244 112.174 234.118 112.58 234.418 112.58C234.718 112.58 236.362 113.018 236.563 113.237C236.765 113.456 237.576 113.298 237.576 113.298C237.576 113.298 238.245 113.517 238.831 113.664C239.417 113.81 239.706 114.779 239.579 115.164C239.531 115.356 239.531 115.557 239.581 115.748C239.631 115.94 239.728 116.115 239.863 116.259C240.106 116.502 240.229 117.293 240.229 117.293C240.526 117.39 240.773 117.601 240.915 117.88C241.034 118.26 241.083 118.659 241.06 119.056Z" fill="#65617D"/>
<path opacity="0.1" d="M216.312 173.079C216.413 173.079 220.664 173.241 220.583 173.931C220.502 174.621 216.312 173.079 216.312 173.079Z" fill="black"/>
<path opacity="0.1" d="M217.263 174.227C217.263 174.227 220.117 174.693 219.369 175.118C218.622 175.543 217.263 174.227 217.263 174.227Z" fill="black"/>
<path opacity="0.1" d="M227.872 172.634C227.872 172.634 232.609 173.04 231.901 173.565C231.192 174.091 229.513 174.174 229.432 174.194C229.351 174.214 227.872 172.634 227.872 172.634Z" fill="black"/>
<path opacity="0.1" d="M227.306 174.722C227.306 174.722 229.93 175.16 230.018 175.674C230.105 176.189 227.306 174.722 227.306 174.722Z" fill="black"/>
<path opacity="0.1" d="M228.762 162.515C228.762 162.515 231.168 163.083 231.315 163.468L228.762 162.515Z" fill="black"/>
<path opacity="0.1" d="M219.477 164.259C219.477 164.259 218.221 164.625 219.437 165.354C220.653 166.083 219.477 164.259 219.477 164.259Z" fill="black"/>
<path opacity="0.1" d="M225.038 144.774C225.18 144.774 227.387 144.045 228.157 144.369C228.707 144.575 229.288 144.685 229.876 144.693L225.038 144.774Z" fill="black"/>
<path opacity="0.1" d="M225.322 147.085L225.301 147.286L223.413 152.236C223.413 152.236 223.109 153.737 222.847 154.589C222.681 155.165 222.549 155.75 222.451 156.341L224.122 145.966L225.322 147.085Z" fill="black"/>
<path d="M228.262 138.35L227.476 138.363H227.452L226.991 136.32L227.673 136.283L228.262 138.35Z" fill="#3F3D56"/>
<path d="M237.812 135.875L237.309 136.291L235.625 137.678C235.625 137.678 231.072 140.111 229.817 137.8C228.71 135.763 233.873 134.309 235.118 133.991L235.382 133.928L237.812 135.875Z" fill="#FBBEBE"/>
<path opacity="0.1" d="M218.357 115.944C218.357 115.944 219.247 116.349 219.45 116.916C219.654 117.483 218.357 115.944 218.357 115.944Z" fill="black"/>
<path opacity="0.1" d="M215.604 122.026C215.604 122.026 214.309 123.607 214.834 124.216C215.359 124.825 215.604 122.026 215.604 122.026Z" fill="black"/>
<path opacity="0.1" d="M238.763 116.842C238.763 116.842 237.55 116.964 237.508 118.018L238.763 116.842Z" fill="black"/>
<path opacity="0.1" d="M227.507 133.462C227.63 133.339 230.422 129.204 231.072 129.569L227.507 133.462Z" fill="black"/>
<path opacity="0.1" d="M232.732 106.576C232.732 107.371 232.536 108.153 232.161 108.854H232.126C231.82 108.788 231.66 108.433 231.428 108.21C231.285 108.073 231.102 107.985 230.906 107.957C230.71 107.93 230.51 107.964 230.335 108.057C230.157 108.163 230.013 108.316 229.918 108.5C229.823 108.684 229.781 108.891 229.797 109.097C229.644 108.44 229.692 107.757 229.541 107.106C229.39 106.456 228.937 105.792 228.316 105.792C228.05 105.792 227.737 105.89 227.544 105.689C227.428 105.569 227.404 105.378 227.326 105.231C226.888 104.511 225.532 104.874 224.981 105.244C224.43 105.615 223.789 106.201 223.105 106.517C223.114 105.237 223.631 104.014 224.541 103.115C225.451 102.217 226.68 101.718 227.958 101.727C229.235 101.736 230.457 102.253 231.354 103.165C232.251 104.076 232.75 105.307 232.741 106.587L232.732 106.576Z" fill="black"/>
<path d="M227.317 105.098C227.404 105.244 227.428 105.435 227.536 105.558C227.728 105.757 228.041 105.654 228.308 105.658C228.929 105.669 229.384 106.329 229.532 106.972C229.681 107.616 229.635 108.313 229.79 108.961C229.773 108.755 229.814 108.548 229.908 108.365C230.003 108.181 230.148 108.028 230.326 107.923C230.501 107.831 230.701 107.796 230.897 107.824C231.093 107.851 231.276 107.938 231.42 108.074C231.651 108.293 231.811 108.655 232.117 108.718C232.423 108.782 232.716 108.488 232.826 108.166C232.905 107.833 232.963 107.496 233.001 107.156C233.139 106.526 233.552 106.007 233.779 105.404C234.051 104.673 234.044 103.866 233.76 103.14C233.607 102.758 233.381 102.417 233.228 102.044C232.994 101.468 232.933 100.816 232.649 100.266C232.421 99.8206 232.041 99.4714 231.579 99.2811C231.117 99.0908 230.602 99.0718 230.127 99.2277C229.69 99.3941 229.305 99.7139 228.859 99.8585C228.259 100.051 227.621 99.9067 227.002 99.8191C226.383 99.7314 225.69 99.7249 225.2 100.132C224.627 100.603 224.469 101.486 223.931 102.001C223.713 102.22 223.424 102.355 223.186 102.555C223.057 102.65 222.952 102.774 222.879 102.917C222.807 103.06 222.769 103.218 222.768 103.378C222.805 103.799 223.205 104.18 223.063 104.57C223.011 104.682 222.937 104.783 222.845 104.865C222.394 105.339 222.058 105.911 221.865 106.537C222.958 106.874 224.122 105.678 224.968 105.113C225.524 104.743 226.873 104.379 227.317 105.098Z" fill="#7C5C5C"/>
<path opacity="0.1" d="M237.812 135.875L237.309 136.291C236.872 135.549 235.039 134.068 235.039 134.068L235.118 133.991L235.382 133.928L237.812 135.875Z" fill="black"/>
<path d="M238.298 135.124C238.298 135.124 238.118 135.575 237.93 135.965C237.742 136.355 237.539 136.71 237.53 136.423C237.508 135.853 235.161 133.948 235.161 133.948L235.479 133.637L235.848 133.277L238.298 135.124Z" fill="#E7EFFD"/>
<path opacity="0.1" d="M238.378 132.123L238.645 136.646C238.015 135.667 236.29 133.157 235.181 133.238L237.873 130.137C237.985 130.012 238.088 129.879 238.182 129.74C238.284 131.032 238.378 132.123 238.378 132.123Z" fill="black"/>
<path opacity="0.1" d="M238.298 135.124C238.298 135.124 238.118 135.575 237.93 135.965C237.224 134.997 236.255 133.851 235.479 133.637L235.848 133.277L238.298 135.124Z" fill="black"/>
<path d="M240.323 118.721L241.051 119.288C241.051 119.288 242.267 119.31 242.387 120.322C242.507 121.334 243.623 121.803 243.623 121.803C243.623 121.803 244.452 122.635 244.452 123.021C244.452 123.406 245.079 124.094 245.079 124.155C245.079 124.216 245.687 125.452 245.606 125.675C245.525 125.899 246.262 126.871 246.031 127.237C245.849 127.565 245.687 127.903 245.545 128.251C245.545 128.251 244.594 130.075 244.108 130.419C243.623 130.763 241.396 133.665 241.396 133.665C241.396 133.665 239.006 136.421 239.006 137.273C239.006 137.273 236.679 133.38 235.301 133.481L237.994 130.38C237.994 130.38 238.459 129.872 238.481 129.569C238.503 129.267 239.776 127.865 240.384 127.804C240.384 127.804 240.485 126.974 240.222 126.952C239.96 126.93 239.737 126.295 239.737 126.295C239.737 126.295 237.954 124.186 237.935 122.848C237.915 121.509 240.323 118.721 240.323 118.721Z" fill="#65617D"/>
<path opacity="0.1" d="M241.397 120.646C241.397 120.646 239.695 121.903 240.06 122.311C240.425 122.718 241.397 120.646 241.397 120.646Z" fill="black"/>
<path opacity="0.1" d="M241.477 125.837C241.477 125.837 244.635 124.823 244.959 125.837H241.477Z" fill="black"/>
<path opacity="0.1" d="M221.922 179.702C221.922 179.702 220.22 180.819 219.369 180.655C218.78 180.581 218.182 180.68 217.648 180.94C217.063 181.581 216.325 182.063 215.503 182.339C214.125 182.806 212.203 182.622 211.109 182.258C210.593 182.085 210.552 181.862 210.801 181.588C211.988 181.825 214.646 182.296 215.361 181.954C216.149 181.535 216.907 181.061 217.629 180.535C217.629 180.535 219.378 180.292 219.612 180.292C219.785 180.292 221.13 179.735 221.889 179.415L221.922 179.702Z" fill="black"/>
<path opacity="0.1" d="M232.22 181.991C232.22 182.059 232.205 182.103 232.205 182.103C232.205 182.103 231.8 182.994 229.552 183.318C227.304 183.643 227.306 182.569 227.306 182.569L227.328 182.278C228.039 182.55 229.591 182.85 232.22 181.991Z" fill="black"/>
<path opacity="0.1" d="M219.197 120.403C219.197 120.403 219.197 125.027 218.803 125.482C218.409 125.938 219.197 120.403 219.197 120.403Z" fill="black"/>
<path opacity="0.1" d="M237.447 121.895L238.035 123.546C238.035 123.546 238.267 121.925 237.447 121.895Z" fill="black"/>
<g opacity="0.1">
<path opacity="0.1" d="M223.133 104.171C223.282 103.792 222.893 103.418 222.842 103.01C222.79 103.125 222.767 103.251 222.777 103.376C222.803 103.685 223.03 103.972 223.089 104.252C223.107 104.227 223.121 104.199 223.133 104.171Z" fill="black"/>
<path opacity="0.1" d="M229.852 108.539C229.707 107.899 229.751 107.224 229.602 106.583C229.454 105.941 228.999 105.268 228.378 105.268C228.111 105.268 227.798 105.365 227.606 105.166C227.487 105.045 227.466 104.854 227.387 104.706C226.949 103.987 225.594 104.353 225.04 104.721C224.214 105.271 223.072 106.425 222.013 106.162C221.963 106.285 221.915 106.41 221.876 106.539C222.969 106.876 224.133 105.68 224.979 105.115C225.532 104.747 226.882 104.384 227.326 105.102C227.413 105.249 227.437 105.439 227.544 105.562C227.737 105.761 228.05 105.658 228.316 105.663C228.937 105.674 229.392 106.333 229.541 106.977C229.69 107.621 229.644 108.317 229.799 108.966C229.788 108.821 229.806 108.676 229.852 108.539Z" fill="black"/>
<path opacity="0.1" d="M232.896 107.778C232.786 108.1 232.498 108.396 232.185 108.33C231.872 108.265 231.721 107.91 231.49 107.686C231.346 107.55 231.163 107.463 230.967 107.435C230.771 107.408 230.572 107.442 230.396 107.533C230.227 107.634 230.088 107.779 229.994 107.952C229.899 108.125 229.852 108.32 229.858 108.517C229.939 108.269 230.109 108.06 230.335 107.93C230.51 107.838 230.71 107.803 230.906 107.83C231.102 107.857 231.284 107.945 231.428 108.081C231.66 108.3 231.82 108.661 232.126 108.725C232.432 108.788 232.725 108.495 232.835 108.173C232.894 107.983 232.931 107.788 232.946 107.59C232.934 107.654 232.917 107.717 232.896 107.778Z" fill="black"/>
<path opacity="0.1" d="M233.849 105.014C233.631 105.614 233.209 106.134 233.071 106.767C233.044 106.894 233.027 107.025 233.012 107.156C233.152 106.526 233.561 106.009 233.788 105.404C233.89 105.134 233.952 104.851 233.974 104.563C233.944 104.716 233.902 104.867 233.849 105.014Z" fill="black"/>
</g>
<path d="M204.592 119.696C204.62 119.696 204.643 119.674 204.643 119.646C204.643 119.618 204.62 119.595 204.592 119.595C204.564 119.595 204.542 119.618 204.542 119.646C204.542 119.674 204.564 119.696 204.592 119.696Z" fill="#E6E8EC"/>
<path d="M223.877 120.776H187.145C186.346 120.776 185.699 121.424 185.699 122.223V164.933C185.699 165.733 186.346 166.381 187.145 166.381H223.877C224.675 166.381 225.322 165.733 225.322 164.933V122.223C225.322 121.424 224.675 120.776 223.877 120.776Z" fill="white"/>
<path opacity="0.1" d="M223.877 120.776H187.145C186.346 120.776 185.699 121.424 185.699 122.223V164.933C185.699 165.733 186.346 166.381 187.145 166.381H223.877C224.675 166.381 225.322 165.733 225.322 164.933V122.223C225.322 121.424 224.675 120.776 223.877 120.776Z" fill="#5A5773"/>
<path d="M221.856 123.102H189.165C188.367 123.102 187.72 123.75 187.72 124.549V162.607C187.72 163.407 188.367 164.055 189.165 164.055H221.856C222.654 164.055 223.302 163.407 223.302 162.607V124.549C223.302 123.75 222.654 123.102 221.856 123.102Z" fill="white"/>
<path d="M215.988 131.315H194.215C193.487 131.315 192.896 131.906 192.896 132.636V138.431C192.896 139.161 193.487 139.752 194.215 139.752H215.988C216.717 139.752 217.307 139.161 217.307 138.431V132.636C217.307 131.906 216.717 131.315 215.988 131.315Z" fill="#215E98"/>
<path d="M216.413 142.838H193.793V144.56H216.413V142.838Z" fill="#215E98"/>
<path d="M221.073 146.472H189.948V148.193H221.073V146.472Z" fill="#215E98"/>
<path d="M221.073 150.296H189.948V152.017H221.073V150.296Z" fill="#215E98"/>
<path d="M221.073 154.12H189.948V155.842H221.073V154.12Z" fill="#215E98"/>
<path d="M91.8523 105.7H1.44558C0.647208 105.7 0 106.348 0 107.148V149.858C0 150.657 0.647208 151.306 1.44558 151.306H91.8523C92.6506 151.306 93.2978 150.657 93.2978 149.858V107.148C93.2978 106.348 92.6506 105.7 91.8523 105.7Z" fill="white"/>
<path opacity="0.1" d="M91.8523 105.7H1.44558C0.647208 105.7 0 106.348 0 107.148V149.858C0 150.657 0.647208 151.306 1.44558 151.306H91.8523C92.6506 151.306 93.2978 150.657 93.2978 149.858V107.148C93.2978 106.348 92.6506 105.7 91.8523 105.7Z" fill="#5A5773"/>
<path d="M87.0913 108.026H6.20443C5.40606 108.026 4.75885 108.674 4.75885 109.474V147.532C4.75885 148.331 5.40606 148.98 6.20443 148.98H87.0913C87.8896 148.98 88.5368 148.331 88.5368 147.532V109.474C88.5368 108.674 87.8896 108.026 87.0913 108.026Z" fill="white"/>
<path d="M73.1078 116.242H18.2698C17.5415 116.242 16.9511 116.833 16.9511 117.562V123.358C16.9511 124.087 17.5415 124.679 18.2698 124.679H73.1078C73.8362 124.679 74.4266 124.087 74.4266 123.358V117.562C74.4266 116.833 73.8362 116.242 73.1078 116.242Z" fill="#215E98"/>
<path d="M72.3183 127.762H19.0593V129.484H72.3183V127.762Z" fill="#215E98"/>
<path d="M83.2904 131.396H10.0054V133.118H83.2904V131.396Z" fill="#215E98"/>
<path d="M83.2904 135.22H10.0054V136.942H83.2904V135.22Z" fill="#215E98"/>
<path d="M83.2904 139.044H10.0054V140.766H83.2904V139.044Z" fill="#215E98"/>
<path d="M22.8034 184.122C23.0636 183.172 23.2408 182.335 23.2408 182.335C23.2457 181.7 23.4128 181.076 23.7263 180.524V180.261L23.8006 178.331C23.685 177.976 23.5387 177.632 23.3633 177.302C23.0396 176.682 23.4726 174.472 23.4726 174.472C23.4726 174.472 24.8788 171.39 24.6426 169.391C24.4064 167.391 27.6213 160.667 27.6213 160.667C27.6298 160.004 27.5623 159.343 27.4201 158.696C27.3942 158.561 27.3869 158.423 27.3982 158.286C27.3971 158.269 27.3971 158.252 27.3982 158.236V158.251C27.4922 156.937 28.6207 154.528 28.6207 154.528L28.6623 149.84C28.6623 149.84 28.1068 147.054 29.3184 143.39C29.7448 142.111 30.0247 141.086 30.2084 140.293C30.2303 140.203 30.25 140.118 30.2675 140.035C28.063 139.61 26.3791 139.264 26.3791 139.264C26.3791 139.264 27.8728 133.924 28.7847 133.015C29.6967 132.106 30.4971 129.166 30.4971 129.166C30.4971 129.166 31.0963 125.377 30.4096 124.238C29.7229 123.099 29.6923 121.172 29.6923 121.172C29.6923 121.172 28.0696 119.895 27.8815 119.35C27.6934 118.804 27.3938 117.576 27.4179 116.94C27.4419 116.305 27.6738 115.736 27.6169 115.396C27.56 115.057 28.1658 113.8 27.9099 113.182C27.8463 112.992 27.8167 112.793 27.8225 112.593C27.8225 112.593 27.8225 112.593 27.8225 112.575C27.8406 112.045 27.9102 111.517 28.0302 111C28.5274 110.611 29.1013 110.332 29.7142 110.181L29.7557 110.037L29.8651 109.662C29.9189 109.629 29.9743 109.598 30.0313 109.57L30.0422 109.432L30.0772 108.887L29.8673 107.643C29.4299 105.483 32.2992 105.275 32.2992 105.275C32.4839 104.954 32.7806 104.712 33.1324 104.596C33.7141 104.416 33.1062 107.818 32.8284 108.026C32.6097 108.182 31.9536 109.231 31.6365 109.745L31.584 109.831C31.6301 109.875 31.6725 109.922 31.7109 109.973L31.5731 110.711L31.5512 110.823C31.7318 111.066 31.8755 111.333 31.9777 111.618C31.9777 111.618 31.4331 112.17 31.5141 112.814C31.5376 113.315 31.4634 113.816 31.2954 114.288C31.326 114.255 31.7087 113.872 32.0717 113.981C32.4348 114.091 33.4451 114.439 33.4451 114.439C33.4451 114.439 34.204 114.603 34.1275 114.77C34.0509 114.936 34.6152 115.699 34.6152 115.699L36.7431 113.83C36.7671 113.771 36.789 113.714 36.8109 113.655C36.9089 113.38 36.9821 113.096 37.0296 112.807C36.8052 112.746 36.5859 112.668 36.3735 112.573C36.1602 112.491 35.9697 112.359 35.818 112.188C35.6212 111.933 35.5993 111.596 35.5228 111.287C35.3828 110.683 35.0547 110.135 34.8251 109.555C34.4399 108.581 34.3383 107.518 34.5321 106.488C34.5788 106.173 34.6986 105.873 34.882 105.612C35.2363 105.163 35.8508 104.999 36.3079 104.649C36.7649 104.298 37.0711 103.744 37.596 103.488C38.0727 103.256 38.6392 103.308 39.1619 103.413C40.1769 103.621 41.1446 104.015 42.0158 104.576C42.3089 104.767 42.6304 104.986 42.9781 104.936C43.2667 104.859 43.5209 104.687 43.6998 104.447C43.6988 104.437 43.6988 104.427 43.6998 104.416L43.7239 104.392C43.9225 104.884 44.0106 105.413 43.9819 105.943C43.9819 106.024 43.9819 106.107 43.9644 106.188C43.9644 106.217 43.9644 106.245 43.9644 106.274C43.9622 106.298 43.9622 106.322 43.9644 106.346C43.9634 106.382 43.9678 106.419 43.9775 106.453C44.0159 106.561 44.0779 106.659 44.1591 106.74C44.2185 106.814 44.2712 106.892 44.3165 106.975C44.3165 106.946 44.3012 106.918 44.2925 106.889C44.4163 107.086 44.4815 107.314 44.4805 107.546C44.4856 107.716 44.4235 107.88 44.3078 108.004C44.2021 108.102 44.0862 108.189 43.9622 108.263C44.073 109.058 43.9378 109.868 43.575 110.584C43.2122 111.301 42.6391 111.888 41.9327 112.269C41.9065 112.326 41.8802 112.385 41.8562 112.444C41.5307 113.14 41.3734 113.903 41.3969 114.671C41.3969 114.726 41.3969 114.781 41.4144 114.836C41.4319 114.89 41.4647 114.895 41.4866 114.925C41.4866 114.925 44.8764 115.09 45.7031 114.395C46.5297 113.701 47.6494 116.242 47.6494 116.242C47.6494 116.242 48.8566 116.524 49.1081 116.299C49.3596 116.073 50.779 116.329 50.779 116.329C51.3805 115.832 52.1486 115.584 52.9266 115.635C53.4156 115.292 53.9509 115.021 54.5165 114.829L54.5559 114.816C54.8033 114.735 55.0658 114.712 55.3235 114.748C55.3235 114.748 57.0446 113.434 57.5586 112.709C58.0725 111.984 60.4847 109.327 60.4847 109.314L60.5 109.183L60.5416 108.784C60.6093 108.798 60.678 108.807 60.7471 108.81L60.7996 108.672C60.9475 108.287 61.1267 107.915 61.3354 107.56C61.3354 107.56 61.3551 107.054 61.213 106.922C61.0708 106.791 61.3507 104.951 61.3507 104.951C61.3507 104.951 62.9888 101.49 64.2332 104.169C64.2332 104.169 66.7132 105.967 64.5 107.864C64.5 107.864 63.6252 108.245 63.5005 108.567C63.4131 108.786 63.1003 109.36 62.8904 109.748L62.7963 109.921L62.8204 109.943L62.7766 110.271L62.7591 110.4C63.1506 110.643 63.4152 110.88 63.3431 111.057C63.2128 111.344 63.1195 111.647 63.0653 111.958C63.0653 111.958 59.973 115.528 59.5312 117.102C59.5312 117.102 51.4263 121.514 48.8151 121.75L49.1759 124.124C49.2188 124.765 49.229 125.408 49.2066 126.05C49.1519 126.553 49.4121 128.855 49.4121 128.855C49.4121 128.855 49.7336 132.242 50.0988 132.728C50.4641 133.214 50.3175 135.233 50.3175 135.233C50.3723 136.204 50.5099 137.169 50.7287 138.116C51.0611 139.41 50.7287 140.983 50.7287 140.983C50.7287 140.983 51.9337 144.065 48.8501 141.888C48.8501 141.888 47.3017 141.732 45.5172 141.603C45.5172 141.66 45.5172 141.721 45.5172 141.78C45.5172 142.012 45.5062 142.262 45.4997 142.525C45.4559 144.262 45.375 146.654 45.2263 148.46C44.9639 151.656 43.7479 157.951 43.7479 157.951L43.6254 161.131C43.6774 161.433 43.6965 161.739 43.6823 162.045C43.6617 163.167 43.3226 164.26 42.7047 165.196L42.3789 167.31C42.3789 167.31 41.7556 168.685 41.7119 169.52C41.7107 169.588 41.7165 169.656 41.7293 169.724C41.7454 169.832 41.7505 169.941 41.7447 170.05C41.7447 171.014 41.0711 173.296 41.0711 173.296C41.0711 173.296 40.9464 175.62 40.5943 175.74C40.2925 175.845 40.9399 177.096 41.1323 177.455C41.1395 177.434 41.1446 177.412 41.1476 177.39L41.1892 177.46C41.2535 177.651 41.2824 177.852 41.2745 178.053C41.2875 178.213 41.2552 178.373 41.1812 178.514C41.1073 178.656 40.9948 178.774 40.8567 178.855C40.181 179.234 39.8136 179.556 40.3691 179.713C40.5741 179.753 40.7771 179.804 40.977 179.865L41.0098 179.788C41.0883 179.822 41.1527 179.882 41.1925 179.957C41.2323 180.033 41.245 180.12 41.2285 180.204C41.2133 180.479 41.1315 180.747 40.9902 180.984C40.7208 181.581 40.3832 182.146 39.9841 182.666L39.7173 182.626C39.7534 182.729 39.8019 182.827 39.8617 182.918C39.9574 183.068 40.0879 183.194 40.2422 183.284C40.3841 183.375 40.5435 183.436 40.7102 183.463C40.8987 183.477 41.0821 183.53 41.2486 183.62C41.4151 183.709 41.561 183.833 41.6769 183.982C42.0049 184.444 42.1995 185.064 41.4932 185.575L38.976 186.337C38.976 186.337 34.6808 186.729 34.9432 185.778C35.2056 184.828 35.3806 183.991 35.3806 183.991C35.3852 183.403 35.5259 182.824 35.7917 182.3C35.8403 182.215 35.8944 182.133 35.9536 182.055L35.8027 182.033C35.8027 182.033 35.5534 179.897 35.1422 179.483C35.0504 179.385 35.0307 179.313 35.0547 179.264C35.0176 179.148 35.1269 179.085 35.2734 179.045C35.2734 179.072 35.2931 179.1 35.3019 179.129C35.4391 179.105 35.5783 179.096 35.7174 179.1C35.7174 179.1 35.8989 177.994 35.4637 177.567C35.4285 177.52 35.4037 177.466 35.3909 177.408C35.3781 177.351 35.3776 177.292 35.3893 177.234C35.3903 177.081 35.4116 176.93 35.4528 176.783C35.457 176.792 35.4622 176.801 35.4681 176.809C35.7349 175.81 36.5616 174.238 36.5616 174.238C36.5616 174.238 36.6337 173.228 36.3713 172.812C36.1089 172.396 36.6184 167.323 36.6184 167.323C36.6184 167.323 36.6075 164.861 36.964 163.729C37.3204 162.596 36.6775 161.221 36.6775 161.221C36.6775 161.221 36.6775 161.195 36.6884 161.149C36.6891 161.142 36.6891 161.136 36.6884 161.129C36.6884 161.129 36.7103 160.978 36.7453 160.743V160.768C36.8415 160.111 37.0186 158.947 37.1367 158.404C37.3051 157.636 37.2745 153.923 37.2745 153.923L36.7081 152.324L35.49 155.009L34.1778 158.601C34.1778 158.601 33.5632 159.346 33.5217 160.135C33.5217 160.174 33.5217 160.211 33.5217 160.251C33.5271 160.332 33.5271 160.413 33.5217 160.494C33.5235 160.954 33.3795 161.402 33.1105 161.775C33.1105 161.775 32.7322 163.481 32.2358 163.9C31.7393 164.318 31.7 165.161 31.7 165.161C31.7 165.161 31.0132 167.632 30.718 168.059C30.4709 168.418 30.4184 169.432 30.4096 169.743C30.4096 169.8 30.4096 169.833 30.4096 169.833C30.4096 169.833 30.2937 170.722 30.2675 171.471C30.2675 171.563 30.2675 171.653 30.2675 171.736C30.2664 171.731 30.2664 171.725 30.2675 171.719C30.2592 171.922 30.2753 172.126 30.3156 172.326C30.3156 172.326 30.3156 172.35 30.3156 172.363V172.236C30.4195 172.749 30.4599 173.272 30.4359 173.795C30.4162 174.691 30.2391 175.747 29.6726 176.349C28.6929 177.392 28.109 177.225 28.109 177.225C28.109 177.225 28.5092 178.59 29.0537 178.881C29.0747 178.892 29.0945 178.905 29.1128 178.92C29.1128 178.894 29.1128 178.868 29.1281 178.844C29.1859 178.914 29.2286 178.995 29.2535 179.083C29.2783 179.17 29.2848 179.262 29.2724 179.352C29.2899 179.946 28.8788 180.885 28.507 181.323C28.3716 181.448 28.2069 181.537 28.028 181.582C28.0553 181.602 28.0838 181.621 28.1133 181.639C28.174 181.675 28.2368 181.707 28.3014 181.735C28.3896 181.778 28.4841 181.807 28.5813 181.82C28.7701 181.833 28.9539 181.886 29.1206 181.975C29.2873 182.065 29.433 182.189 29.548 182.339C29.876 182.799 30.0707 183.419 29.3643 183.93L26.8471 184.692C26.8471 184.692 22.5388 185.073 22.8034 184.122Z" fill="url(#paint2_linear)"/>
<path d="M39.0634 186.341L41.5019 185.577C42.1864 185.064 41.9983 184.444 41.6812 183.982C41.5718 183.834 41.4317 183.711 41.2705 183.623C41.1093 183.534 40.9309 183.481 40.7474 183.467C40.5844 183.441 40.4292 183.378 40.2925 183.286C40.1436 183.195 40.0184 183.071 39.9273 182.922C39.7629 182.636 39.6805 182.31 39.6889 181.98C39.6889 181.98 37.0777 181.104 36.3254 181.851C36.1924 181.987 36.0797 182.141 35.9907 182.309C35.7327 182.835 35.5952 183.413 35.5883 184C35.5883 184 35.4221 184.834 35.1663 185.787C34.9104 186.74 39.0634 186.341 39.0634 186.341Z" fill="#2D293D"/>
<path d="M27.3391 184.701L29.7776 183.936C30.4621 183.424 30.274 182.804 29.9569 182.344C29.8475 182.195 29.7071 182.072 29.5455 181.983C29.3839 181.893 29.205 181.84 29.0209 181.827C28.9265 181.814 28.8349 181.786 28.7497 181.744C28.6873 181.714 28.6267 181.682 28.5682 181.645C27.9121 181.249 27.9624 180.331 27.9624 180.331C27.9624 180.331 25.3512 179.455 24.5989 180.202C24.498 180.303 24.4085 180.414 24.3321 180.535C24.0264 181.091 23.8641 181.715 23.8597 182.35C23.8597 182.35 23.6913 183.187 23.4376 184.138C23.1839 185.088 27.3391 184.701 27.3391 184.701Z" fill="#2D293D"/>
<path opacity="0.1" d="M36.3232 181.851C36.191 181.987 36.079 182.141 35.9908 182.309L39.9273 182.92C39.763 182.634 39.6805 182.308 39.6889 181.978C39.6889 181.978 37.0843 181.104 36.3232 181.851Z" fill="black"/>
<path opacity="0.1" d="M24.3321 180.543L24.3036 181.286C24.881 182.326 27.8662 182.219 28.7497 181.744C28.6873 181.715 28.6267 181.682 28.5682 181.645C27.9121 181.249 27.9624 180.331 27.9624 180.331C27.9624 180.331 25.3512 179.455 24.5989 180.202C24.4975 180.305 24.408 180.42 24.3321 180.543Z" fill="black"/>
<path d="M23.9844 177.328C24.1582 177.659 24.3045 178.003 24.4218 178.358L24.3146 181.017C24.9445 182.156 28.4567 181.919 28.951 181.332C29.4452 180.745 30.0095 179.179 29.4824 178.89C28.9554 178.601 28.5683 177.234 28.5683 177.234C28.5683 177.234 29.1347 177.392 30.086 176.358C31.0373 175.324 30.858 172.913 30.7093 172.334C30.5606 171.756 30.8077 169.842 30.8077 169.842C30.8077 169.842 30.8252 168.493 31.1117 168.066C31.3982 167.638 32.0652 165.168 32.0652 165.168C32.0652 165.168 32.0958 164.325 32.5835 163.906C33.0712 163.488 33.4408 161.779 33.4408 161.779C33.7334 161.361 33.8717 160.854 33.8323 160.345C33.7645 159.499 34.4709 158.615 34.4709 158.615L35.7546 155.023L36.9356 152.335L37.4801 153.941C37.4801 153.941 37.5064 157.653 37.3423 158.422C37.1783 159.191 36.9049 161.238 36.9049 161.238C36.9049 161.238 37.526 162.612 37.1805 163.746C36.835 164.881 36.8393 167.341 36.8393 167.341C36.8393 167.341 36.3407 172.415 36.5944 172.829C36.8481 173.243 36.7759 174.253 36.7759 174.253C36.7759 174.253 35.2844 177.164 35.7043 177.587C36.1242 178.009 35.9492 179.12 35.9492 179.12C35.9492 179.12 35.0089 179.083 35.3959 179.503C35.783 179.924 35.9908 182.042 35.9908 182.042L40.0389 182.67C40.4268 182.148 40.754 181.583 41.0142 180.986C41.6003 179.762 40.9574 179.871 40.4216 179.716C39.8858 179.56 40.2401 179.236 40.894 178.857C41.5479 178.478 41.2133 177.554 41.2133 177.554C41.2133 177.554 40.3013 175.865 40.6446 175.745C40.988 175.624 41.1083 173.3 41.1083 173.3C41.1083 173.3 41.8868 170.562 41.7469 169.816C41.6069 169.069 42.3833 167.31 42.3833 167.31L42.6982 165.198C43.4649 164.023 43.7825 162.61 43.5927 161.219L43.7195 157.951C43.7195 157.951 44.9092 151.667 45.176 148.46C45.3422 146.415 45.4253 143.618 45.4625 141.872C45.4844 140.891 45.4931 140.243 45.4931 140.243L31.022 138.166C30.9717 138.892 30.8553 139.612 30.6743 140.317C30.4972 141.112 30.2238 142.137 29.7995 143.416C28.6142 147.081 29.1434 149.867 29.1434 149.867L29.0975 154.554C29.0975 154.554 27.6979 157.638 27.9275 158.726C28.0647 159.374 28.1292 160.035 28.1199 160.697C28.1199 160.697 25.0057 167.417 25.2332 169.408C25.4606 171.399 24.0937 174.492 24.0937 174.492C24.0937 174.492 23.6717 176.708 23.9844 177.328Z" fill="#575988"/>
<path opacity="0.05" d="M32.9662 160.099L28.566 159.333C28.566 159.333 30.9739 161.996 32.9662 160.099Z" fill="black"/>
<path opacity="0.1" d="M29.3708 155.038C29.3708 155.038 29.1521 156.597 30.0947 157.228C30.086 157.224 28.3911 156.889 29.3708 155.038Z" fill="black"/>
<path opacity="0.1" d="M29.8345 150.062C29.8345 150.062 33.4145 153.253 34.7683 153.053C36.122 152.854 29.8345 150.062 29.8345 150.062Z" fill="black"/>
<path opacity="0.1" d="M38.3964 161.742C38.3964 161.742 41.1804 162.491 41.222 163.621C41.2635 164.752 38.3964 161.742 38.3964 161.742Z" fill="black"/>
<path opacity="0.05" d="M37.2352 175.76C37.2352 175.76 41.1717 176.654 40.0301 177.116C38.8885 177.578 37.0186 177.911 37.0186 177.911C37.0186 177.911 35.7371 177.933 37.2352 175.76Z" fill="black"/>
<g opacity="0.05">
<path opacity="0.05" d="M40.8021 177.95C40.904 177.891 40.9914 177.811 41.058 177.713C41.1247 177.616 41.1687 177.506 41.187 177.389L41.2242 177.462C41.2242 177.462 41.561 178.384 40.9049 178.776C40.8305 178.817 40.7605 178.861 40.6862 178.903C40.5703 178.877 40.4434 178.855 40.3232 178.82C39.7895 178.655 40.146 178.331 40.8021 177.95Z" fill="black"/>
<path opacity="0.05" d="M35.6977 177.486C35.5928 177.381 35.6081 177.122 35.6977 176.792C35.8484 177.097 35.9134 177.438 35.8858 177.777C35.8462 177.667 35.7818 177.567 35.6977 177.486Z" fill="black"/>
<path opacity="0.05" d="M36.953 160.752C37.0835 161.157 37.1571 161.578 37.1717 162.003C37.1074 161.707 37.0151 161.418 36.8962 161.14C36.8962 161.14 36.9202 160.989 36.953 160.752Z" fill="black"/>
<path opacity="0.05" d="M27.9362 158.634C27.914 158.512 27.9059 158.388 27.9122 158.264C27.9537 158.518 27.9799 158.752 27.9953 158.958C27.9778 158.853 27.9581 158.746 27.9362 158.634Z" fill="black"/>
<path opacity="0.05" d="M36.5878 172.731C36.5221 172.486 36.4985 172.232 36.5179 171.979C36.6306 172.283 36.684 172.606 36.6753 172.93C36.6541 172.86 36.6247 172.794 36.5878 172.731Z" fill="black"/>
<path opacity="0.05" d="M35.5119 179.045C35.695 179.73 35.823 180.428 35.8946 181.133L39.9426 181.761C40.3319 181.239 40.66 180.674 40.9202 180.077C40.9727 179.97 41.0121 179.873 41.047 179.786C41.2854 179.906 41.3729 180.165 41.023 180.892C40.7625 181.488 40.4353 182.052 40.0476 182.574L35.9908 181.95C35.9908 181.95 35.7721 179.816 35.3806 179.398C35.1991 179.19 35.3347 179.096 35.5119 179.045Z" fill="black"/>
<path opacity="0.05" d="M41.117 173.208C41.117 173.208 40.9945 175.532 40.6534 175.653C40.4981 175.261 40.3975 174.893 40.5506 174.838C40.8918 174.715 41.0164 172.393 41.0164 172.393C41.0164 172.393 41.795 169.658 41.655 168.909C41.515 168.16 42.2892 166.405 42.2892 166.405L42.6063 164.292C43.3731 163.116 43.6907 161.703 43.5008 160.312L43.6255 157.044C43.6255 157.044 44.8108 150.749 45.0688 147.554C45.2329 145.508 45.316 142.711 45.3553 140.965C45.3553 140.65 45.3685 140.37 45.3728 140.133L45.4887 140.151C45.4887 140.151 45.4887 140.808 45.4581 141.778C45.4209 143.53 45.3378 146.323 45.1716 148.368C44.9136 151.562 43.7304 157.859 43.7304 157.859L43.6036 161.125C43.7935 162.515 43.4767 163.928 42.7113 165.104L42.392 167.218C42.392 167.218 41.6156 168.97 41.7556 169.724C41.8956 170.477 41.117 173.208 41.117 173.208Z" fill="black"/>
<path opacity="0.05" d="M28.8504 180.427C29.1984 179.961 29.4389 179.423 29.5546 178.853C29.9548 179.242 29.4234 180.681 28.9532 181.24C28.483 181.798 24.9467 182.063 24.3168 180.927L24.3409 180.285C25.2157 181.222 28.3824 180.984 28.8504 180.427Z" fill="black"/>
<path opacity="0.05" d="M23.8838 176.417C24.0576 176.747 24.2038 177.092 24.3212 177.446L24.3015 177.917C24.2098 177.683 24.1061 177.453 23.991 177.23C23.8946 176.961 23.8559 176.675 23.8772 176.391L23.8838 176.417Z" fill="black"/>
<path opacity="0.05" d="M28.7738 177.144C28.6555 176.88 28.5547 176.609 28.472 176.331C28.472 176.331 29.0385 176.487 29.9876 175.444C30.6787 174.684 30.7727 173.206 30.7159 172.234C30.8646 172.814 31.0417 175.214 30.0926 176.257C29.4671 176.94 29.01 177.109 28.7738 177.144Z" fill="black"/>
<path opacity="0.05" d="M30.8099 169.741C30.7249 170.403 30.6767 171.069 30.6655 171.736C30.6525 171.63 30.6335 171.525 30.6087 171.421C30.4621 170.84 30.7049 168.928 30.7049 168.928C30.7049 168.928 30.7246 167.579 31.0089 167.152C31.2932 166.725 31.9624 164.254 31.9624 164.254C31.9624 164.254 31.9952 163.413 32.4829 162.993C32.9706 162.572 33.3402 160.866 33.3402 160.866C33.6317 160.447 33.77 159.941 33.7316 159.431C33.6638 158.586 34.3702 157.701 34.3702 157.701L35.654 154.109L36.8349 151.422L37.3795 153.029C37.3795 153.029 37.3795 153.226 37.3795 153.542L36.9421 152.228L35.7611 154.913L34.4774 158.507C34.4774 158.507 33.771 159.383 33.8388 160.237C33.8783 160.747 33.7399 161.254 33.4473 161.672C33.4473 161.672 33.0777 163.378 32.59 163.797C32.1024 164.215 32.0717 165.058 32.0717 165.058C32.0717 165.058 31.4025 167.529 31.1182 167.958C30.8339 168.387 30.8099 169.741 30.8099 169.741Z" fill="black"/>
</g>
<path d="M30.3659 107.665L30.5715 108.904L30.5365 109.452L30.5103 109.855L31.9077 110.054L32.0761 109.769C32.3867 109.255 33.0296 108.206 33.233 108.048C33.4998 107.84 34.0947 104.438 33.5304 104.618C33.1864 104.737 32.8982 104.978 32.7213 105.297C32.7213 105.297 29.9526 105.507 30.3659 107.665Z" fill="#FFCDD3"/>
<path opacity="0.1" d="M30.5103 109.855L31.9077 110.054L32.0761 109.769C31.8958 109.549 31.6453 109.397 31.3665 109.34C31.0878 109.282 30.7978 109.323 30.5452 109.454L30.5103 109.855Z" fill="black"/>
<path d="M30.1297 110.508L31.9646 111.009L32.0127 110.733L32.1461 109.995C32.05 109.857 31.9275 109.739 31.7857 109.648C31.644 109.558 31.4857 109.496 31.32 109.467C31.1543 109.438 30.9845 109.442 30.8204 109.479C30.6563 109.516 30.5011 109.585 30.3637 109.682L30.2587 110.056L30.1297 110.508Z" fill="#DCE6F2"/>
<path d="M60.2092 108.957L62.1424 110.096C62.1424 110.096 62.2234 109.94 62.3371 109.728C62.5405 109.34 62.8423 108.758 62.9276 108.547C63.0566 108.225 63.8964 107.842 63.8964 107.842C66.0418 105.943 63.6427 104.149 63.6427 104.149C62.4399 101.471 60.8521 104.933 60.8521 104.933C60.8521 104.933 60.5788 106.78 60.7165 106.905C60.8543 107.029 60.8346 107.542 60.8346 107.542C60.6308 107.898 60.4567 108.27 60.3141 108.655C60.2463 108.836 60.2092 108.957 60.2092 108.957Z" fill="#FFCDD3"/>
<path opacity="0.1" d="M60.2092 108.957L62.1424 110.096C62.1424 110.096 62.2234 109.94 62.3371 109.728C62.0659 109.485 61.108 108.633 60.7821 108.668C60.6265 108.683 60.4698 108.683 60.3141 108.668C60.2463 108.836 60.2092 108.957 60.2092 108.957Z" fill="black"/>
<path d="M59.9839 109.542L62.1708 110.722L62.2321 110.245L62.2758 109.916C62.2758 109.916 61.0336 108.764 60.6531 108.79C60.459 108.81 60.2632 108.802 60.0714 108.766L60.032 109.165L59.9839 109.542Z" fill="#DCE6F2"/>
<path d="M35.4331 116.04C35.4331 116.04 45.071 117.508 43.2843 116.85C42.0399 116.391 41.5697 115.569 41.4997 114.676C41.4758 113.909 41.6253 113.147 41.9371 112.446C42.1903 111.844 42.5031 111.268 42.871 110.729C42.871 110.729 35.6277 106.368 36.9662 110.131C37.173 110.7 37.2917 111.298 37.3183 111.903C37.3393 112.503 37.2519 113.103 37.0602 113.672C36.7459 114.597 36.1829 115.416 35.4331 116.04Z" fill="#FFCDD3"/>
<path opacity="0.1" d="M36.9749 110.131C37.1818 110.7 37.3005 111.298 37.327 111.903C38.0006 112.514 38.766 112.505 39.748 112.542C40.5025 112.573 41.3292 112.788 41.9349 112.446C42.1881 111.844 42.501 111.268 42.8688 110.729C42.8688 110.729 35.6365 106.368 36.9749 110.131Z" fill="black"/>
<path d="M40.0235 112.807C42.2351 112.807 44.0279 111.012 44.0279 108.797C44.0279 106.582 42.2351 104.787 40.0235 104.787C37.812 104.787 36.0192 106.582 36.0192 108.797C36.0192 111.012 37.812 112.807 40.0235 112.807Z" fill="#FFCDD3"/>
<path opacity="0.1" d="M35.4331 116.04C35.4331 116.04 45.071 117.508 43.2843 116.851C42.0399 116.391 41.5697 115.569 41.4997 114.676C41.0383 114.135 40.0848 113.721 39.4702 113.495C38.9107 113.284 38.2999 113.25 37.7207 113.399C37.4896 113.457 37.2685 113.549 37.0646 113.673C36.7491 114.597 36.1845 115.417 35.4331 116.04Z" fill="black"/>
<path opacity="0.1" d="M30.1297 110.507L31.9646 111.009L32.0127 110.733C31.8258 110.454 31.5576 110.239 31.2445 110.118C30.9315 109.997 30.5888 109.975 30.2631 110.056L30.1297 110.507Z" fill="black"/>
<path opacity="0.1" d="M59.9839 109.542L62.1708 110.722L62.2321 110.245C61.5232 109.834 60.7849 109.477 60.0233 109.176L59.9839 109.542Z" fill="black"/>
<path opacity="0.1" d="M30.6655 140.317C34.3834 141.055 39.6977 142.032 40.5528 141.806C41.2635 141.62 43.5052 141.73 45.4538 141.872C45.4756 140.891 45.4844 140.243 45.4844 140.243L31.0133 138.166C30.9629 138.892 30.8465 139.612 30.6655 140.317Z" fill="black"/>
<path d="M26.963 139.292C26.963 139.292 39.2231 141.89 40.5637 141.537C41.9043 141.184 48.6883 141.883 48.6883 141.883C51.6691 144.056 50.5078 140.976 50.5078 140.976C50.5078 140.976 50.838 139.404 50.5078 138.109C50.2963 137.161 50.1639 136.197 50.112 135.227C50.112 135.227 50.2585 133.207 49.9064 132.723C49.5543 132.239 49.2503 128.851 49.2503 128.851C49.2503 128.851 49.0032 126.549 49.0557 126.045C49.1082 125.541 49.0294 124.12 49.0294 124.12L48.6817 121.746C51.2164 121.507 59.0654 117.087 59.0654 117.087C59.5028 115.519 62.4967 111.922 62.4967 111.922C62.5504 111.612 62.6415 111.31 62.7679 111.022C62.9866 110.492 60.0058 109.298 60.0058 109.298C60.0058 109.298 57.6417 111.973 57.1518 112.696C56.6619 113.418 54.9845 114.737 54.9845 114.737C54.7347 114.702 54.4803 114.725 54.2409 114.805H54.2016C53.655 114.999 53.1394 115.271 52.6707 115.613C51.9131 115.566 51.1667 115.815 50.5887 116.307C50.5887 116.307 49.2175 116.053 48.9747 116.279C48.732 116.504 47.562 116.224 47.562 116.224C47.562 116.224 46.4685 113.688 45.679 114.382C44.8895 115.076 41.596 114.916 41.596 114.916C41.1826 114.316 40.1329 113.859 39.4768 113.618C38.9175 113.405 38.3064 113.372 37.7272 113.521C37.4759 113.583 37.237 113.688 37.0208 113.83L34.9563 115.705C34.9563 115.705 34.4118 114.943 34.4861 114.776C34.5605 114.61 33.8301 114.448 33.8301 114.448C33.8301 114.448 32.8656 114.106 32.5004 113.992C32.1352 113.878 31.7787 114.264 31.7481 114.299C31.915 113.826 31.9893 113.326 31.9668 112.825C31.8902 112.181 32.4151 111.627 32.4151 111.627C31.35 108.685 28.601 111.009 28.601 111.009C28.601 111.009 28.2358 112.579 28.4829 113.199C28.7301 113.819 28.1418 115.074 28.1943 115.414C28.2468 115.753 28.0259 116.318 28.0018 116.958C27.9778 117.597 28.2664 118.824 28.4392 119.367C28.612 119.91 30.1888 121.189 30.1888 121.189C30.1888 121.189 30.2172 123.112 30.8799 124.256C31.5425 125.399 30.9608 129.184 30.9608 129.184C30.9608 129.184 30.1735 132.121 29.2965 133.032C28.4195 133.943 26.963 139.292 26.963 139.292Z" fill="#656691"/>
<path opacity="0.1" d="M45.8058 117.823C45.8058 117.823 46.2192 116.728 46.5581 116.638C46.8979 116.528 47.2297 116.394 47.551 116.237L47.3498 115.815C47.3498 115.815 46.0726 116.115 45.8583 116.472C45.644 116.829 45.8058 117.823 45.8058 117.823Z" fill="black"/>
<path opacity="0.1" d="M52.6598 115.626C52.7145 115.966 55.6953 116.384 55.6953 116.384L54.241 114.805H54.2038C53.6519 115.002 53.1317 115.278 52.6598 115.626Z" fill="black"/>
<path d="M61.4973 111.605C61.6458 111.605 61.7663 111.484 61.7663 111.335C61.7663 111.187 61.6458 111.066 61.4973 111.066C61.3487 111.066 61.2283 111.187 61.2283 111.335C61.2283 111.484 61.3487 111.605 61.4973 111.605Z" fill="#575988"/>
<path d="M61.132 112.131C61.2806 112.131 61.401 112.01 61.401 111.861C61.401 111.712 61.2806 111.592 61.132 111.592C60.9835 111.592 60.863 111.712 60.863 111.861C60.863 112.01 60.9835 112.131 61.132 112.131Z" fill="#575988"/>
<path d="M60.7756 112.615C60.9241 112.615 61.0446 112.494 61.0446 112.345C61.0446 112.196 60.9241 112.076 60.7756 112.076C60.627 112.076 60.5066 112.196 60.5066 112.345C60.5066 112.494 60.627 112.615 60.7756 112.615Z" fill="#575988"/>
<path d="M60.4038 113.14C60.5524 113.14 60.6728 113.02 60.6728 112.871C60.6728 112.722 60.5524 112.601 60.4038 112.601C60.2553 112.601 60.1348 112.722 60.1348 112.871C60.1348 113.02 60.2553 113.14 60.4038 113.14Z" fill="#575988"/>
<path d="M28.7038 111.839C28.8246 111.839 28.9225 111.741 28.9225 111.62C28.9225 111.499 28.8246 111.401 28.7038 111.401C28.583 111.401 28.4851 111.499 28.4851 111.62C28.4851 111.741 28.583 111.839 28.7038 111.839Z" fill="#575988"/>
<path d="M28.6514 112.334C28.7722 112.334 28.8701 112.236 28.8701 112.115C28.8701 111.994 28.7722 111.896 28.6514 111.896C28.5306 111.896 28.4327 111.994 28.4327 112.115C28.4327 112.236 28.5306 112.334 28.6514 112.334Z" fill="#575988"/>
<path d="M28.601 112.829C28.7218 112.829 28.8197 112.731 28.8197 112.61C28.8197 112.489 28.7218 112.391 28.601 112.391C28.4802 112.391 28.3823 112.489 28.3823 112.61C28.3823 112.731 28.4802 112.829 28.601 112.829Z" fill="#575988"/>
<path opacity="0.1" d="M45.4385 126.95C45.4713 126.913 37.5217 136.208 31.8487 130.441C31.8487 130.441 41.0995 132.062 45.4385 126.95Z" fill="black"/>
<path opacity="0.1" d="M49.6024 132.104C49.6024 132.104 45.0601 132.053 44.5352 133.341L44.4827 134.701C44.6092 134.778 44.753 134.821 44.9006 134.826C45.0482 134.832 45.1949 134.8 45.3269 134.734C45.7949 134.504 48.5898 133.214 49.5324 133.924L49.6024 132.104Z" fill="black"/>
<path d="M49.5171 132.099C49.5171 132.099 45.176 132.051 44.673 133.28L44.6227 134.576C44.7435 134.65 44.881 134.691 45.0222 134.696C45.1634 134.702 45.3036 134.671 45.4297 134.607C45.8671 134.388 48.5505 133.159 49.4515 133.834L49.5171 132.099Z" fill="#656691"/>
<path opacity="0.1" d="M47.5052 122.142C46.9996 123.198 46.3705 124.19 45.6309 125.097C44.8228 126.1 43.8565 126.964 42.7704 127.655C42.7704 127.655 47.4046 122.755 47.5052 122.142Z" fill="black"/>
<path opacity="0.1" d="M49.1913 116.921C49.1913 116.921 48.3165 120.164 46.3154 121.2L49.1913 116.921Z" fill="black"/>
<path opacity="0.1" d="M50.3394 117.295C50.3613 117.236 50.9124 119.91 47.6691 121.253C47.6691 121.253 49.0403 120.843 50.3394 117.295Z" fill="black"/>
<path opacity="0.1" d="M30.6152 114.338C30.6655 114.338 29.0035 115.313 28.5442 115.775C28.5551 115.775 29.6595 114.233 30.6152 114.338Z" fill="black"/>
<path d="M40.9661 112.472C40.9251 112.685 40.8056 112.874 40.6315 113.002C40.5118 113.055 40.3814 113.078 40.251 113.07C39.0285 113.101 37.7557 113.105 36.6469 112.59C36.4394 112.508 36.2554 112.376 36.1111 112.205C35.9186 111.951 35.8924 111.616 35.8246 111.305C35.689 110.7 35.3719 110.155 35.151 109.574C34.779 108.597 34.6829 107.536 34.8732 106.508C34.9171 106.194 35.0331 105.894 35.2122 105.632C35.5534 105.183 36.1504 105.019 36.5922 104.666C37.034 104.313 37.3314 103.762 37.8431 103.503C38.3024 103.271 38.8513 103.321 39.3565 103.429C40.3482 103.637 41.291 104.033 42.1339 104.596C42.4161 104.787 42.7266 105.003 43.0634 104.953C43.3521 104.873 43.6041 104.695 43.7764 104.449C43.9929 105.006 44.0724 105.607 44.0082 106.201C43.9928 106.288 43.9928 106.377 44.0082 106.464C44.0455 106.571 44.1052 106.669 44.1831 106.751C44.4696 107.113 44.638 107.673 44.3275 108.015C44.1919 108.164 43.9885 108.234 43.8573 108.394C43.6211 108.666 43.6801 109.073 43.6714 109.434C43.6793 109.56 43.6438 109.684 43.5708 109.787C43.5029 109.844 43.4215 109.884 43.3342 109.901C43.247 109.918 43.1568 109.913 43.0722 109.886C42.9035 109.828 42.7251 109.804 42.5473 109.815C42.3575 109.87 42.1918 109.987 42.0771 110.148C41.4844 110.836 41.2395 111.618 40.9661 112.472Z" fill="#2D293D"/>
<g opacity="0.1">
<path opacity="0.1" d="M35.9908 111.89C36.1343 112.061 36.3185 112.195 36.5266 112.277C37.6354 112.792 38.9082 112.785 40.1307 112.757C40.2614 112.765 40.392 112.741 40.5112 112.687C40.6857 112.56 40.8053 112.371 40.8458 112.159C41.1148 111.303 41.3641 110.523 41.9568 109.826C42.0712 109.665 42.2369 109.546 42.427 109.491C42.6048 109.481 42.7829 109.505 42.9519 109.561C43.0364 109.589 43.1268 109.595 43.2141 109.578C43.3015 109.56 43.3829 109.521 43.4505 109.463C43.5237 109.361 43.5593 109.237 43.5511 109.112C43.5511 108.751 43.5008 108.343 43.737 108.07C43.8682 107.919 44.0716 107.851 44.2072 107.693C44.2952 107.581 44.3517 107.448 44.3705 107.307C44.3894 107.166 44.37 107.022 44.3144 106.891C44.5156 107.24 44.5921 107.68 44.3297 107.967C44.1941 108.116 43.9929 108.186 43.8595 108.346C43.6233 108.617 43.6845 109.025 43.6758 109.386C43.684 109.512 43.6476 109.637 43.573 109.739C43.5052 109.796 43.4238 109.836 43.3365 109.853C43.2492 109.87 43.1589 109.865 43.0744 109.837C42.9064 109.78 42.7288 109.756 42.5517 109.767C42.3608 109.822 42.1942 109.94 42.0793 110.102C41.4888 110.797 41.2395 111.578 40.9683 112.433C40.9645 112.52 40.9425 112.606 40.9039 112.685C40.8652 112.763 40.8106 112.833 40.7435 112.89C40.6765 112.946 40.5985 112.988 40.5145 113.013C40.4304 113.037 40.3422 113.044 40.2554 113.033C39.0329 113.061 37.76 113.066 36.6491 112.551C36.4418 112.468 36.2578 112.336 36.1133 112.165C36.0411 112.065 35.987 111.954 35.9536 111.835C35.9645 111.854 35.9769 111.872 35.9908 111.89Z" fill="black"/>
<path opacity="0.1" d="M43.9995 106.35C43.9452 106.287 43.9063 106.212 43.8857 106.131C43.8704 106.044 43.8704 105.955 43.8857 105.869C43.9386 105.378 43.894 104.883 43.7545 104.41L43.7764 104.386C43.9948 104.942 44.0751 105.544 44.0104 106.138C44.0004 106.208 43.9968 106.279 43.9995 106.35Z" fill="black"/>
</g>
<path opacity="0.1" d="M41.585 114.93C41.585 114.93 36.555 115.401 36.1395 114.63L41.585 114.93Z" fill="black"/>
<path opacity="0.1" d="M31.9471 112.483C31.9471 112.483 29.1675 112.38 28.5179 113.399L31.9471 112.483Z" fill="black"/>
</g>
<defs>
<linearGradient id="paint0_linear" x1="120.602" y1="150.787" x2="120.602" y2="32.8781" gradientUnits="userSpaceOnUse">
<stop stop-color="#808080" stop-opacity="0.25"/>
<stop offset="0.54" stop-color="#808080" stop-opacity="0.12"/>
<stop offset="1" stop-color="#808080" stop-opacity="0.1"/>
</linearGradient>
<linearGradient id="paint1_linear" x1="44799.7" y1="72821" x2="44799.7" y2="39909.1" gradientUnits="userSpaceOnUse">
<stop stop-color="#808080" stop-opacity="0.25"/>
<stop offset="0.54" stop-color="#808080" stop-opacity="0.12"/>
<stop offset="1" stop-color="#808080" stop-opacity="0.1"/>
</linearGradient>
<linearGradient id="paint2_linear" x1="-37466.4" y1="72099.9" x2="-36183.7" y2="40081.4" gradientUnits="userSpaceOnUse">
<stop stop-color="#808080" stop-opacity="0.25"/>
<stop offset="0.54" stop-color="#808080" stop-opacity="0.12"/>
<stop offset="1" stop-color="#808080" stop-opacity="0.1"/>
</linearGradient>
<clipPath id="clip0">
<rect width="250" height="189" fill="white"/>
</clipPath>
</defs>
</svg>
