<svg width="359" height="87" xmlns="http://www.w3.org/2000/svg" xmlns:xlink="http://www.w3.org/1999/xlink" xml:space="preserve" overflow="hidden"><defs><clipPath id="clip0"><rect x="457" y="317" width="359" height="87"/></clipPath></defs><g clip-path="url(#clip0)" transform="translate(-457 -317)"><path d="M0 0 399.915 0 399.915 399.915 0 399.915Z" fill="#FFFFFF" transform="matrix(1 0 0 1.00095 439.696 159.48)"/><path d="M29.0938 200.158C28.9939 182.461 43.2908 168.064 60.9871 168.064L83.1824 168.064 83.1824 193.859 71.085 193.859 71.085 171.564 64.9862 171.564C64.8863 171.564 64.7863 171.564 64.6863 171.564 63.9865 171.564 63.2866 171.764 62.6867 171.964L62.7867 171.964C60.5872 172.863 59.0875 175.063 59.0875 177.562L59.0875 222.453C59.0875 225.752 61.7869 228.452 65.0862 228.452L71.1849 228.452 71.1849 206.156 83.2824 206.156 83.2824 231.951 61.387 231.951C43.7907 231.851 29.1938 217.854 29.0938 200.158Z" fill="#2A9C66" transform="matrix(1 0 0 1.00095 439.696 159.48)"/><path d="M62.6867 171.964C63.2866 171.664 63.9865 171.564 64.6863 171.564 64.0864 171.564 63.3866 171.764 62.6867 171.964L62.6867 171.964Z" fill="#2A9C66" transform="matrix(1 0 0 1.00095 439.696 159.48)"/><path d="M95.3798 231.851 95.3798 167.964 101.479 167.964C104.778 167.964 107.477 170.664 107.477 173.963L107.477 225.852C107.477 229.151 104.778 231.851 101.479 231.851L95.3798 231.851Z" fill="#2A9C66" transform="matrix(1 0 0 1.00095 439.696 159.48)"/><path d="M124.374 181.362C124.374 173.763 130.172 168.364 138.071 168.364 142.47 168.364 146.069 169.964 148.469 172.863L144.769 176.363C143.07 174.463 140.97 173.363 138.471 173.363 133.772 173.363 130.372 176.663 130.372 181.462 130.372 186.261 133.672 189.56 138.471 189.56 140.97 189.56 143.07 188.56 144.769 186.561L148.469 190.06C146.069 192.959 142.47 194.559 138.071 194.559 130.172 194.359 124.374 188.96 124.374 181.362Z" fill="#18203D" transform="matrix(1 0 0 1.00095 439.696 159.48)"/><path d="M150.768 181.362C150.768 173.863 156.567 168.364 164.565 168.364 172.463 168.364 178.362 173.863 178.362 181.362 178.362 188.86 172.463 194.359 164.565 194.359 156.567 194.359 150.768 188.86 150.768 181.362ZM172.364 181.362C172.364 176.563 168.964 173.263 164.465 173.263 159.966 173.263 156.567 176.563 156.567 181.362 156.567 186.161 159.966 189.46 164.465 189.46 169.064 189.36 172.364 186.161 172.364 181.362Z" fill="#18203D" transform="matrix(1 0 0 1.00095 439.696 159.48)"/><path d="M206.356 193.959 206.356 178.862 198.958 191.359 196.358 191.359 188.96 179.262 188.96 193.959 183.461 193.959 183.461 168.764 188.26 168.764 197.658 184.461 206.956 168.764 211.755 168.764 211.855 193.959 206.356 193.959Z" fill="#18203D" transform="matrix(1 0 0 1.00095 439.696 159.48)"/><path d="M241.349 193.959 241.349 178.862 233.95 191.359 231.351 191.359 223.953 179.262 223.953 193.959 218.454 193.959 218.454 168.764 223.253 168.764 232.651 184.461 241.949 168.764 246.748 168.764 246.848 193.959 241.349 193.959Z" fill="#18203D" transform="matrix(1 0 0 1.00095 439.696 159.48)"/><path d="M253.246 182.861 253.246 168.764 259.045 168.764 259.045 182.661C259.045 187.46 261.145 189.46 264.644 189.46 268.243 189.46 270.243 187.46 270.243 182.661L270.243 168.764 276.042 168.764 276.042 182.861C276.042 190.26 271.842 194.359 264.644 194.359 257.445 194.359 253.246 190.26 253.246 182.861Z" fill="#18203D" transform="matrix(1 0 0 1.00095 439.696 159.48)"/><path d="M305.535 168.764 305.535 193.959 300.736 193.959 288.139 178.662 288.139 193.959 282.34 193.959 282.34 168.764 287.139 168.764 299.637 184.061 299.637 168.764 305.535 168.764Z" fill="#18203D" transform="matrix(1 0 0 1.00095 439.696 159.48)"/><path d="M312.234 168.764 318.033 168.764 318.033 193.959 312.234 193.959 312.234 168.764Z" fill="#18203D" transform="matrix(1 0 0 1.00095 439.696 159.48)"/><path d="M329.63 173.463 321.532 173.463 321.532 168.664 343.527 168.664 343.527 173.463 335.429 173.463 335.429 193.959 329.63 193.959 329.63 173.463Z" fill="#18203D" transform="matrix(1 0 0 1.00095 439.696 159.48)"/><path d="M361.024 185.061 361.024 193.959 355.225 193.959 355.225 184.961 345.427 168.764 351.626 168.764 358.324 179.962 365.023 168.764 370.721 168.764 361.024 185.061Z" fill="#18203D" transform="matrix(1 0 0 1.00095 439.696 159.48)"/><path d="M147.469 206.456 147.469 231.651 141.67 231.651 141.67 221.353 130.272 221.353 130.272 231.651 124.474 231.651 124.474 206.456 130.272 206.456 130.272 216.354 141.67 216.354 141.67 206.456 147.469 206.456Z" fill="#18203D" transform="matrix(1 0 0 1.00095 439.696 159.48)"/><path d="M154.067 206.456 159.866 206.456 159.866 231.651 154.067 231.651 154.067 206.456Z" fill="#18203D" transform="matrix(1 0 0 1.00095 439.696 159.48)"/><path d="M190.76 206.456 179.862 231.651 174.063 231.651 163.165 206.456 169.464 206.456 177.162 224.452 184.961 206.456 190.76 206.456Z" fill="#18203D" transform="matrix(1 0 0 1.00095 439.696 159.48)"/><path d="M213.655 226.952 213.655 231.651 194.159 231.651 194.159 206.456 213.155 206.456 213.155 211.155 199.958 211.155 199.958 216.654 211.655 216.654 211.655 221.153 199.958 221.153 199.958 226.952 213.655 226.952Z" fill="#18203D" transform="matrix(1 0 0 1.00095 439.696 159.48)"/></g></svg>