<svg width="150" height="150" viewBox="0 0 150 150" fill="none" xmlns="http://www.w3.org/2000/svg">
<path d="M68.5094 2.25529C72.3363 -0.751762 77.6637 -0.751762 81.4906 2.25529L101.148 17.7017C102.315 18.6189 103.656 19.2787 105.086 19.6395L129.159 25.7157C133.845 26.8986 137.167 31.1554 137.252 36.088L137.692 61.4255C137.718 62.9301 138.049 64.4127 138.664 65.7798L149.025 88.8031C151.042 93.2852 149.857 98.5933 146.137 101.737L127.027 117.886C125.893 118.845 124.965 120.034 124.303 121.378L113.149 144.011C110.978 148.418 106.178 150.78 101.454 149.768L77.1851 144.567C75.744 144.259 74.256 144.259 72.8149 144.567L48.5462 149.768C43.8217 150.78 39.0219 148.418 36.8506 144.011L25.6975 121.378C25.0352 120.034 24.1074 118.845 22.9727 117.886L3.86332 101.737C0.143187 98.5933 -1.04228 93.2852 0.974742 88.8031L11.3357 65.7798C11.9509 64.4127 12.282 62.9301 12.3081 61.4255L12.7478 36.088C12.8334 31.1554 16.155 26.8986 20.8414 25.7157L44.9144 19.6395C46.3438 19.2787 47.6845 18.6189 48.8518 17.7017L68.5094 2.25529Z" fill="url(#paint0_linear)"/>
<g opacity="0.2">
<path d="M79.3281 5.00732L98.9857 20.4538C100.536 21.6717 102.321 22.5515 104.229 23.0331L128.302 29.1093C131.412 29.8942 133.694 32.7501 133.753 36.1487L134.192 61.4863C134.227 63.4636 134.662 65.4145 135.473 67.2161L145.834 90.2394C147.218 93.3153 146.389 96.9412 143.878 99.0638L124.768 115.213C123.262 116.485 122.036 118.059 121.163 119.831L110.01 142.464C108.531 145.466 105.306 147.014 102.187 146.345L77.9184 141.145C75.9939 140.733 74.006 140.733 72.0816 141.145L47.8129 146.345C44.6935 147.014 41.4694 145.466 39.9901 142.464L28.837 119.831C27.9637 118.059 26.7376 116.485 25.2318 115.213L6.12245 99.0638C3.61065 96.9412 2.78225 93.3153 4.16644 90.2394L14.5274 67.2161C15.3382 65.4145 15.7733 63.4636 15.8076 61.4863L16.2472 36.1487C16.3062 32.7501 18.5883 29.8942 21.698 29.1093L45.771 23.0331C47.6792 22.5515 49.4642 21.6717 51.0143 20.4538L70.6719 5.00732C73.2296 2.99756 76.7704 2.99756 79.3281 5.00732Z" stroke="black" stroke-width="7"/>
</g>
<path d="M75.5 47.24C72.1132 47.24 69.34 50.0132 69.34 53.4C69.34 55.2227 70.1822 56.8409 71.4575 57.9719L60.87 76.3075L50.4269 71.0619C50.7036 70.3641 50.86 69.5941 50.86 68.8C50.86 65.4132 48.0868 62.64 44.7 62.64C41.3132 62.64 38.54 65.4132 38.54 68.8C38.54 72.1507 41.2651 74.9059 44.6038 74.96L48.935 93.44H102.065L106.396 74.96C109.735 74.9059 112.46 72.1507 112.46 68.8C112.46 65.4132 109.687 62.64 106.3 62.64C102.913 62.64 100.14 65.4132 100.14 68.8C100.14 69.5219 100.29 70.2257 100.525 70.8694L89.9857 76.1631L79.4944 58.02C80.7998 56.8891 81.66 55.2468 81.66 53.4C81.66 50.0132 78.8868 47.24 75.5 47.24ZM75.5 50.32C77.2205 50.32 78.58 51.6795 78.58 53.4C78.58 55.1205 77.2205 56.48 75.5 56.48C73.7796 56.48 72.42 55.1205 72.42 53.4C72.42 51.6795 73.7796 50.32 75.5 50.32ZM44.7 65.72C46.4205 65.72 47.78 67.0795 47.78 68.8C47.78 70.5205 46.4205 71.88 44.7 71.88C42.9796 71.88 41.62 70.5205 41.62 68.8C41.62 67.0795 42.9796 65.72 44.7 65.72ZM106.3 65.72C108.021 65.72 109.38 67.0795 109.38 68.8C109.38 70.5205 108.021 71.88 106.3 71.88C104.58 71.88 103.22 70.5205 103.22 68.8C103.22 67.0795 104.58 65.72 106.3 65.72ZM49.32 96.52V104.22C49.32 105.074 50.0118 105.76 50.86 105.76H100.14C100.994 105.76 101.68 105.074 101.68 104.22V96.52H49.32Z" fill="white"/>
<defs>
<linearGradient id="paint0_linear" x1="0" y1="0" x2="150" y2="150" gradientUnits="userSpaceOnUse">
<stop offset="0.104167" stop-color="#8F268C"/>
<stop offset="0.901042" stop-color="#F8CB52"/>
</linearGradient>
</defs>
</svg>
