<svg width="150" height="150" viewBox="0 0 150 150" fill="none" xmlns="http://www.w3.org/2000/svg">
<path d="M68.5094 2.25529C72.3363 -0.751762 77.6637 -0.751762 81.4906 2.25529L101.148 17.7017C102.315 18.6189 103.656 19.2787 105.086 19.6395L129.159 25.7157C133.845 26.8986 137.167 31.1554 137.252 36.088L137.692 61.4255C137.718 62.9301 138.049 64.4127 138.664 65.7798L149.025 88.8031C151.042 93.2852 149.857 98.5933 146.137 101.737L127.027 117.886C125.893 118.845 124.965 120.034 124.303 121.378L113.149 144.011C110.978 148.418 106.178 150.78 101.454 149.768L77.1851 144.567C75.744 144.259 74.256 144.259 72.8149 144.567L48.5462 149.768C43.8217 150.78 39.0219 148.418 36.8506 144.011L25.6975 121.378C25.0352 120.034 24.1074 118.845 22.9727 117.886L3.86332 101.737C0.143187 98.5933 -1.04228 93.2852 0.974742 88.8031L11.3357 65.7798C11.9509 64.4127 12.282 62.9301 12.3081 61.4255L12.7478 36.088C12.8334 31.1554 16.155 26.8986 20.8414 25.7157L44.9144 19.6395C46.3438 19.2787 47.6845 18.6189 48.8518 17.7017L68.5094 2.25529Z" fill="url(#paint0_linear)"/>
<g opacity="0.2">
<path d="M79.3281 5.00732L98.9857 20.4538C100.536 21.6717 102.321 22.5515 104.229 23.0331L128.302 29.1093C131.412 29.8942 133.694 32.7501 133.753 36.1487L134.192 61.4863C134.227 63.4636 134.662 65.4145 135.473 67.2161L145.834 90.2394C147.218 93.3153 146.389 96.9412 143.878 99.0638L124.768 115.213C123.262 116.485 122.036 118.059 121.163 119.831L110.01 142.464C108.531 145.466 105.306 147.014 102.187 146.345L77.9184 141.145C75.9939 140.733 74.006 140.733 72.0816 141.145L47.8129 146.345C44.6935 147.014 41.4694 145.466 39.9901 142.464L28.837 119.831C27.9637 118.059 26.7376 116.485 25.2318 115.213L6.12245 99.0638C3.61065 96.9412 2.78225 93.3153 4.16644 90.2394L14.5274 67.2161C15.3382 65.4145 15.7733 63.4636 15.8076 61.4863L16.2472 36.1487C16.3062 32.7501 18.5883 29.8942 21.698 29.1093L45.771 23.0331C47.6792 22.5515 49.4642 21.6717 51.0143 20.4538L70.6719 5.00732C73.2296 2.99756 76.7704 2.99756 79.3281 5.00732Z" stroke="black" stroke-width="7"/>
</g>
<path d="M82.8871 46.16C82.2374 46.1781 81.6659 46.6172 81.4734 47.2428C81.2809 47.8684 81.5035 48.5482 82.0269 48.9392C85.522 51.5921 88.632 54.7142 91.2789 58.2093C91.6038 58.6665 92.1512 58.9131 92.7106 58.847C93.2701 58.7868 93.7453 58.4198 93.9619 57.9025C94.1724 57.3791 94.0882 56.7896 93.7333 56.3505C90.918 52.6268 87.6034 49.3062 83.8917 46.4848C83.609 46.2623 83.2541 46.148 82.8871 46.16ZM71.8725 47.7963C71.1627 47.7842 70.531 48.2534 70.3445 48.9392C70.1641 49.631 70.4709 50.3529 71.0965 50.6958C78.0927 54.612 84 60.2486 88.2531 67.0222C88.7042 67.7441 89.6547 67.9666 90.3766 67.5155C91.0924 67.0583 91.315 66.1078 90.8578 65.3859C86.3341 58.1732 80.0538 52.1816 72.6064 48.0068C72.3838 47.8745 72.1312 47.8083 71.8725 47.7963ZM60.4549 50.786C60.1902 50.774 59.9134 50.792 59.6367 50.8522C58.5118 51.0868 57.5794 51.9891 57.3087 53.102C57.032 54.251 57.3989 55.3278 58.1268 56.0497L59.7149 57.6318L72.7508 70.6496C73.3524 71.2512 73.3584 72.2257 72.7568 72.8273C72.1492 73.4288 71.1807 73.4288 70.5731 72.8273L50.9321 53.2163C50.2042 52.4945 49.1274 52.1335 47.9845 52.4042C46.9077 52.6689 46.0234 53.5532 45.7587 54.63C45.482 55.785 45.8489 56.8618 46.5768 57.5837L64.8944 75.9013C65.502 76.5028 65.502 77.4773 64.8944 78.0849C64.2988 78.6865 63.3243 78.6865 62.7227 78.0849L46.8716 62.2338C46.1497 61.5239 45.0789 61.175 43.942 61.4517C42.8712 61.7164 41.9929 62.5887 41.7282 63.6595C41.4515 64.8084 41.8184 65.8852 42.5343 66.6131L60.5631 84.666C61.1647 85.2736 61.1647 86.2481 60.5631 86.8497C59.9616 87.4513 58.981 87.4513 58.3855 86.8497C58.3855 86.8497 50.3967 78.8369 46.9377 75.3719C45.9873 74.4154 45.3737 73.8018 45.3737 73.8018C44.6578 73.0739 43.575 72.7009 42.426 72.9777C41.3071 73.2423 40.4048 74.1868 40.1762 75.3057C39.9416 76.4246 40.3145 77.4713 41.0304 78.1691L68.2992 105.432C71.0002 108.133 74.5495 109.282 78.0987 109.282C81.6479 109.282 85.2693 107.874 87.9703 105.167L94.4732 98.6644C96.0493 97.0943 97.2404 95.2355 98.0164 93.148L101.463 82.2477C102.089 80.5754 103.039 79.0895 104.303 77.8263C104.303 77.8263 107.467 74.6741 108.514 73.6153C108.778 73.3446 109.572 72.5205 109.572 72.5205C110.409 71.6843 110.92 70.5293 110.92 69.26C110.92 66.7094 108.851 64.64 106.3 64.64C105.013 64.64 103.852 65.1634 103.015 66.0116L93.1678 75.8531C91.4173 77.5977 88.3794 77.5916 86.6349 75.8531L64.6477 53.86L62.4881 51.7004C61.9648 51.171 61.2489 50.8281 60.4549 50.786ZM43.5209 89.262C42.9795 89.286 42.4862 89.5928 42.2275 90.068C41.9688 90.5493 41.9809 91.1268 42.2576 91.59C46.8716 99.5667 53.585 106.166 61.6399 110.641C62.1272 110.924 62.7227 110.924 63.204 110.641C63.6913 110.359 63.98 109.835 63.968 109.276C63.9499 108.71 63.6371 108.205 63.1378 107.946C55.5702 103.742 49.2598 97.5395 44.9285 90.05C44.6458 89.5447 44.0984 89.2439 43.5209 89.262Z" fill="white"/>
<defs>
<linearGradient id="paint0_linear" x1="0" y1="0" x2="150" y2="150" gradientUnits="userSpaceOnUse">
<stop offset="0.104167" stop-color="#797979"/>
<stop offset="0.901042" stop-color="#D1D1D1"/>
</linearGradient>
</defs>
</svg>
