<svg width="150" height="150" viewBox="0 0 150 150" fill="none" xmlns="http://www.w3.org/2000/svg">
<path d="M72.6698 1.06906C73.9026 -0.356357 76.0974 -0.356354 77.3302 1.06907L90.7007 16.5279C91.4918 17.4425 92.7359 17.8114 93.8909 17.4738L113.415 11.7689C115.215 11.2429 117.062 12.4411 117.336 14.3134L120.308 34.618C120.483 35.8193 121.332 36.8088 122.485 37.1555L141.964 43.0158C143.76 43.5561 144.672 45.5722 143.9 47.2969L135.529 66.0007C135.034 67.1073 135.219 68.4033 136.003 69.3242L149.252 84.889C150.474 86.3242 150.161 88.518 148.589 89.5475L131.534 100.712C130.525 101.373 129.986 102.564 130.153 103.766L132.966 124.094C133.225 125.969 131.788 127.644 129.914 127.651L109.589 127.732C108.387 127.737 107.296 128.445 106.792 129.547L98.2758 148.184C97.4905 149.902 95.3847 150.527 93.8041 149.51L76.6624 138.481C75.6483 137.829 74.3517 137.829 73.3376 138.481L56.1959 149.51C54.6153 150.527 52.5095 149.902 51.7242 148.184L43.2081 129.547C42.7043 128.445 41.6135 127.737 40.411 127.732L20.0862 127.651C18.2121 127.644 16.7748 125.968 17.0342 124.094L19.8475 103.766C20.0139 102.564 19.4753 101.373 18.4663 100.712L1.41124 89.5475C-0.161359 88.518 -0.473708 86.3242 0.747986 84.889L13.9974 69.3242C14.7812 68.4033 14.9657 67.1073 14.4705 66.0007L6.10019 47.2968C5.32838 45.5722 6.24011 43.5561 8.03622 43.0158L27.5152 37.1555C28.6676 36.8088 29.5167 35.8193 29.6925 34.618L32.6643 14.3134C32.9384 12.4411 34.7847 11.2429 36.585 11.7689L56.1091 17.4739C57.2642 17.8114 58.5083 17.4425 59.2993 16.5279L72.6698 1.06906Z" fill="url(#paint0_linear)"/>
<g opacity="0.2">
<path d="M61.9465 18.8175L75 3.72515L88.0535 18.8175C89.735 20.7616 92.3945 21.5575 94.8726 20.8334L113.937 15.2627L116.844 35.1249C117.215 37.6551 119.008 39.7646 121.477 40.5072L140.538 46.2416L132.335 64.5711C131.29 66.9054 131.676 69.6411 133.338 71.5929L146.323 86.8476L129.617 97.7839C127.466 99.1918 126.335 101.715 126.686 104.246L129.441 124.153L109.575 124.232C106.993 124.242 104.674 125.762 103.609 128.092L95.2875 146.302L78.5562 135.538C76.3886 134.143 73.6114 134.143 71.4438 135.538L54.7126 146.302L46.3915 128.093C45.3263 125.762 43.0067 124.242 40.425 124.232L20.5595 124.153L23.3144 104.246C23.6647 101.715 22.5339 99.1918 20.3832 97.7839L3.67714 86.8475L16.6625 71.5929C18.3239 69.6411 18.7099 66.9054 17.6652 64.5711L9.46246 46.2416L28.5235 40.5072C30.9917 39.7646 32.7853 37.6551 33.1556 35.1249L36.0627 15.2627L55.1274 20.8334C57.6055 21.5575 60.2651 20.7616 61.9465 18.8175ZM146.587 87.1577C146.586 87.1572 146.586 87.1568 146.586 87.1563L146.587 87.1577ZM146.67 86.6203C146.671 86.6199 146.671 86.6195 146.672 86.6191L146.67 86.6203ZM54.3022 146.566C54.3026 146.566 54.3029 146.566 54.3033 146.566L54.3022 146.566Z" stroke="black" stroke-width="7"/>
</g>
<path d="M75 42C56.7741 42 42 56.7741 42 75C42 93.2259 56.7741 108 75 108C93.2259 108 108 93.2259 108 75C108 56.7741 93.2259 42 75 42ZM85.8669 90.5331L71.7 76.3662V55.2H78.3V73.6338L90.5331 85.8669L85.8669 90.5331Z" fill="white"/>
<circle cx="117" cy="117" r="31" fill="#334155" stroke="white" stroke-width="4"/>
<path d="M99.5947 115.133H101.55C102.481 115.133 103.171 114.9 103.619 114.435C104.068 113.969 104.292 113.351 104.292 112.581C104.292 111.836 104.068 111.257 103.619 110.842C103.179 110.427 102.57 110.22 101.791 110.22C101.089 110.22 100.5 110.414 100.026 110.804C99.5524 111.185 99.3154 111.684 99.3154 112.302H95.6465C95.6465 111.337 95.9046 110.474 96.4209 109.712C96.9456 108.942 97.6735 108.341 98.6045 107.909C99.5439 107.478 100.576 107.262 101.702 107.262C103.657 107.262 105.189 107.731 106.298 108.671C107.407 109.602 107.961 110.888 107.961 112.53C107.961 113.377 107.703 114.155 107.187 114.866C106.67 115.577 105.993 116.123 105.155 116.504C106.196 116.876 106.971 117.435 107.479 118.18C107.995 118.924 108.253 119.805 108.253 120.82C108.253 122.462 107.652 123.778 106.45 124.769C105.257 125.759 103.674 126.254 101.702 126.254C99.8571 126.254 98.3464 125.767 97.1699 124.794C96.002 123.821 95.418 122.534 95.418 120.935H99.0869C99.0869 121.629 99.3451 122.196 99.8613 122.636C100.386 123.076 101.029 123.296 101.791 123.296C102.663 123.296 103.344 123.067 103.835 122.61C104.334 122.145 104.584 121.531 104.584 120.77C104.584 118.924 103.568 118.002 101.537 118.002H99.5947V115.133ZM120.745 107.325V110.347H120.39C118.731 110.372 117.394 110.804 116.378 111.642C115.371 112.479 114.766 113.643 114.562 115.133C115.544 114.134 116.784 113.635 118.282 113.635C119.89 113.635 121.168 114.21 122.116 115.361C123.064 116.512 123.538 118.027 123.538 119.906C123.538 121.108 123.276 122.196 122.751 123.169C122.235 124.142 121.498 124.9 120.542 125.441C119.594 125.983 118.519 126.254 117.317 126.254C115.371 126.254 113.797 125.577 112.595 124.223C111.401 122.868 110.805 121.062 110.805 118.802V117.481C110.805 115.476 111.181 113.707 111.935 112.175C112.696 110.634 113.784 109.445 115.197 108.607C116.619 107.761 118.265 107.334 120.136 107.325H120.745ZM117.165 116.58C116.573 116.58 116.035 116.737 115.553 117.05C115.07 117.354 114.715 117.761 114.486 118.269V119.386C114.486 120.613 114.728 121.574 115.21 122.268C115.692 122.953 116.369 123.296 117.241 123.296C118.028 123.296 118.663 122.987 119.146 122.369C119.636 121.743 119.882 120.935 119.882 119.944C119.882 118.937 119.636 118.125 119.146 117.507C118.655 116.889 117.994 116.58 117.165 116.58ZM126.268 116.91L127.334 107.516H137.693V110.575H130.343L129.886 114.549C130.757 114.083 131.684 113.851 132.666 113.851C134.426 113.851 135.806 114.396 136.805 115.488C137.803 116.58 138.303 118.108 138.303 120.071C138.303 121.265 138.049 122.335 137.541 123.283C137.042 124.223 136.322 124.955 135.383 125.479C134.443 125.996 133.335 126.254 132.057 126.254C130.939 126.254 129.903 126.03 128.946 125.581C127.99 125.124 127.232 124.485 126.674 123.664C126.124 122.843 125.832 121.908 125.798 120.858H129.429C129.505 121.629 129.771 122.229 130.229 122.661C130.694 123.084 131.299 123.296 132.044 123.296C132.873 123.296 133.512 123 133.961 122.407C134.41 121.806 134.634 120.96 134.634 119.868C134.634 118.819 134.376 118.015 133.859 117.456C133.343 116.897 132.611 116.618 131.663 116.618C130.791 116.618 130.085 116.847 129.543 117.304L129.188 117.634L126.268 116.91Z" fill="white"/>
<defs>
<linearGradient id="paint0_linear" x1="0" y1="0" x2="150" y2="150" gradientUnits="userSpaceOnUse">
<stop offset="0.140625" stop-color="#6E29DA"/>
<stop offset="0.869792" stop-color="#ED499A"/>
</linearGradient>
</defs>
</svg>
