<svg width="150" height="150" viewBox="0 0 150 150" fill="none" xmlns="http://www.w3.org/2000/svg">
<path d="M68.5094 2.25529C72.3363 -0.751762 77.6637 -0.751762 81.4906 2.25529L101.148 17.7017C102.315 18.6189 103.656 19.2787 105.086 19.6395L129.159 25.7157C133.845 26.8986 137.167 31.1554 137.252 36.088L137.692 61.4255C137.718 62.9301 138.049 64.4127 138.664 65.7798L149.025 88.8031C151.042 93.2852 149.857 98.5933 146.137 101.737L127.027 117.886C125.893 118.845 124.965 120.034 124.303 121.378L113.149 144.011C110.978 148.418 106.178 150.78 101.454 149.768L77.1851 144.567C75.744 144.259 74.256 144.259 72.8149 144.567L48.5462 149.768C43.8217 150.78 39.0219 148.418 36.8506 144.011L25.6975 121.378C25.0352 120.034 24.1074 118.845 22.9727 117.886L3.86332 101.737C0.143187 98.5933 -1.04228 93.2852 0.974742 88.8031L11.3357 65.7798C11.9509 64.4127 12.282 62.9301 12.3081 61.4255L12.7478 36.088C12.8334 31.1554 16.155 26.8986 20.8414 25.7157L44.9144 19.6395C46.3438 19.2787 47.6845 18.6189 48.8518 17.7017L68.5094 2.25529Z" fill="url(#paint0_linear)"/>
<g opacity="0.2">
<path d="M79.3281 5.00732L98.9857 20.4538C100.536 21.6717 102.321 22.5515 104.229 23.0331L128.302 29.1093C131.412 29.8942 133.694 32.7501 133.753 36.1487L134.192 61.4863C134.227 63.4636 134.662 65.4145 135.473 67.2161L145.834 90.2394C147.218 93.3153 146.389 96.9412 143.878 99.0638L124.768 115.213C123.262 116.485 122.036 118.059 121.163 119.831L110.01 142.464C108.531 145.466 105.306 147.014 102.187 146.345L77.9184 141.145C75.9939 140.733 74.006 140.733 72.0816 141.145L47.8129 146.345C44.6935 147.014 41.4694 145.466 39.9901 142.464L28.837 119.831C27.9637 118.059 26.7376 116.485 25.2318 115.213L6.12245 99.0638C3.61065 96.9412 2.78225 93.3153 4.16644 90.2394L14.5274 67.2161C15.3382 65.4145 15.7733 63.4636 15.8076 61.4863L16.2472 36.1487C16.3062 32.7501 18.5883 29.8942 21.698 29.1093L45.771 23.0331C47.6792 22.5515 49.4642 21.6717 51.0143 20.4538L70.6719 5.00732C73.2296 2.99756 76.7704 2.99756 79.3281 5.00732Z" stroke="black" stroke-width="7"/>
</g>
<path d="M94.3594 40.54C93.9564 40.6062 93.5894 40.8709 93.3488 41.2138C90.2026 45.6653 84.1509 47.073 77.1788 48.7213C67.65 50.9771 55.7932 53.7864 47.8707 66.0463C42.1979 74.7749 43.9545 82.0478 46.4269 86.5956C49.7596 92.7376 56.3286 97.3155 61.4419 98.675C53.9585 105.034 46.2705 108.709 40.0263 106.953C39.2021 106.724 38.378 107.241 38.1494 108.059C37.9208 108.878 38.39 109.708 39.2082 109.936C40.5256 110.303 41.8671 110.466 43.2507 110.466C49.8979 110.466 57.1708 106.417 64.0407 100.408C63.8782 99.9443 63.77 99.4931 63.6557 99.06C62.9879 99.0119 62.236 98.8675 61.49 98.675C72.3182 89.4711 82.6711 74.6967 87.4775 62.6294C87.7904 61.8413 88.6626 61.4503 89.4507 61.7631C90.2387 62.0759 90.6297 62.9482 90.3169 63.7363C85.8774 74.8772 75.5185 90.3674 64.0407 100.408C65.5506 104.727 69.4367 109.84 79.3444 109.84C84.2652 109.84 92.0073 106.838 97.6319 98.3863C102.715 90.7464 109.308 73.2169 96.0438 41.5025C95.8272 40.9852 95.346 40.6002 94.7925 40.54C94.6482 40.522 94.4918 40.5159 94.3594 40.54Z" fill="white"/>
<defs>
<linearGradient id="paint0_linear" x1="0" y1="0" x2="150" y2="150" gradientUnits="userSpaceOnUse">
<stop offset="0.104167" stop-color="#117C73"/>
<stop offset="0.901042" stop-color="#15B5A3"/>
</linearGradient>
</defs>
</svg>
