<svg width="150" height="150" viewBox="0 0 150 150" fill="none" xmlns="http://www.w3.org/2000/svg">
<circle cx="75" cy="75" r="75" fill="url(#paint0_linear)"/>
<g opacity="0.2">
<circle cx="75" cy="75" r="71.5" stroke="black" stroke-width="7"/>
</g>
<path d="M75 40C55.6751 40 40 55.6751 40 75C40 94.3249 55.6751 110 75 110C94.3249 110 110 94.3249 110 75C110 55.6751 94.3249 40 75 40ZM94.7826 79.5652C94.7826 80.4806 94.1763 81.087 93.2609 81.087H81.087V93.2609C81.087 94.1763 80.4806 94.7826 79.5652 94.7826H70.4348C69.5194 94.7826 68.913 94.1763 68.913 93.2609V81.087H56.7391C55.8237 81.087 55.2174 80.4806 55.2174 79.5652V70.4348C55.2174 69.5194 55.8237 68.913 56.7391 68.913H68.913V56.7391C68.913 55.8237 69.5194 55.2174 70.4348 55.2174H79.5652C80.4806 55.2174 81.087 55.8237 81.087 56.7391V68.913H93.2609C94.1763 68.913 94.7826 69.5194 94.7826 70.4348V79.5652Z" fill="white"/>
<defs>
<linearGradient id="paint0_linear" x1="0" y1="0" x2="150" y2="150" gradientUnits="userSpaceOnUse">
<stop stop-color="#3831A3"/>
<stop offset="1" stop-color="#818DF9"/>
</linearGradient>
</defs>
</svg>
