<svg width="150" height="150" viewBox="0 0 150 150" fill="none" xmlns="http://www.w3.org/2000/svg">
<circle cx="75" cy="75" r="75" fill="url(#paint0_linear)"/>
<g opacity="0.2">
<circle cx="75" cy="75" r="71.5" stroke="black" stroke-width="7"/>
</g>
<path d="M92.16 106.2H62.52C54.7809 106.2 48.48 99.9052 48.48 92.16V77.4984C48.48 74.4698 49.3636 71.7033 51.1125 69.2597L68.5894 45.2198C69.6801 43.3978 71.5204 42.24 73.44 42.24C76.0298 42.24 79.68 44.4642 79.68 49.4184C79.68 50.8322 79.2961 51.7828 78.9183 52.703C78.8269 52.9223 78.7354 53.1478 78.644 53.3916C78.059 55.0308 74.9695 62.0142 73.3486 65.64C78.1505 65.6461 88.7901 65.6766 92.8303 65.7984C97.2787 65.7984 99.96 68.8087 99.96 71.7216C99.96 72.7209 99.7955 74.0859 99.6553 75.0487C101.026 75.8653 103.08 77.6203 103.08 80.7708C103.08 82.9645 102.026 84.5855 101.014 85.6458C102.044 86.5964 103.08 88.0894 103.08 90.2892C103.08 93.4214 100.923 95.3166 99.3811 96.2794C99.6858 97.0959 99.96 98.1928 99.96 99.4908C99.96 102.294 96.9923 106.2 92.16 106.2Z" fill="white"/>
<circle cx="117" cy="117" r="31" fill="#334155" stroke="white" stroke-width="4"/>
<path d="M109.813 116.463L111.167 104.539H124.315V108.422H114.986L114.406 113.466C115.512 112.875 116.688 112.58 117.935 112.58C120.169 112.58 121.92 113.272 123.188 114.658C124.455 116.044 125.089 117.983 125.089 120.475C125.089 121.99 124.767 123.349 124.122 124.552C123.488 125.744 122.575 126.673 121.383 127.339C120.19 127.995 118.783 128.322 117.161 128.322C115.743 128.322 114.427 128.038 113.213 127.468C112 126.888 111.038 126.077 110.329 125.035C109.631 123.993 109.26 122.806 109.217 121.474H113.826C113.922 122.452 114.261 123.214 114.841 123.762C115.432 124.299 116.2 124.568 117.145 124.568C118.198 124.568 119.009 124.192 119.578 123.44C120.147 122.677 120.432 121.603 120.432 120.217C120.432 118.885 120.104 117.865 119.449 117.156C118.794 116.447 117.865 116.092 116.662 116.092C115.555 116.092 114.658 116.382 113.971 116.962L113.52 117.381L109.813 116.463Z" fill="white"/>
<defs>
<linearGradient id="paint0_linear" x1="0" y1="0" x2="150" y2="150" gradientUnits="userSpaceOnUse">
<stop stop-color="#DA7807"/>
<stop offset="1" stop-color="#FCBF25"/>
</linearGradient>
</defs>
</svg>
