<?xml version="1.0" standalone="no"?>
<!DOCTYPE svg PUBLIC "-//W3C//DTD SVG 20010904//EN"
 "http://www.w3.org/TR/2001/REC-SVG-20010904/DTD/svg10.dtd">
<svg version="1.0" xmlns="http://www.w3.org/2000/svg"
 width="512.000000pt" height="512.000000pt" viewBox="0 0 512.000000 512.000000"
 preserveAspectRatio="xMidYMid meet">

<g transform="translate(0.000000,512.000000) scale(0.100000,-0.100000)"
fill="#000000" stroke="none">
<path d="M2450 5106 c-92 -25 -175 -81 -238 -161 l-19 -24 -65 34 c-248 132
-467 56 -468 -163 0 -115 61 -257 183 -427 l50 -69 -29 -21 c-83 -58 -138
-146 -150 -242 -9 -75 23 -175 76 -235 22 -26 40 -48 40 -51 0 -3 -33 -23 -72
-45 -177 -97 -400 -260 -559 -408 -361 -335 -593 -711 -697 -1129 -153 -612
-88 -1197 178 -1593 65 -97 204 -237 295 -299 303 -204 704 -273 1585 -273
1038 0 1442 96 1752 418 123 127 196 242 263 411 38 96 95 304 95 348 0 33
-42 73 -78 73 -45 0 -67 -34 -92 -145 -83 -367 -272 -630 -555 -772 -218 -110
-494 -156 -1042 -175 -513 -18 -1051 4 -1323 53 -229 41 -490 267 -628 545
-169 339 -207 828 -100 1324 129 603 551 1148 1183 1529 l118 71 465 0 465 0
115 -61 c508 -269 904 -656 1127 -1099 66 -132 101 -226 140 -373 53 -207 84
-438 85 -638 0 -55 4 -69 23 -87 31 -29 72 -28 102 3 23 22 25 31 25 123 0
245 -58 586 -136 804 -192 532 -606 1001 -1179 1337 -49 29 -92 55 -94 57 -2
2 15 24 38 50 54 62 86 161 77 237 -12 96 -67 184 -150 242 l-29 21 50 69
c122 170 183 312 183 427 -1 219 -220 295 -468 163 l-65 -34 -21 27 c-108 139
-292 203 -456 158z m237 -172 c55 -26 111 -83 138 -140 19 -40 50 -64 83 -64
13 0 51 20 83 44 130 98 297 124 315 50 19 -73 -50 -231 -170 -391 l-76 -103
-257 0 c-267 0 -325 -7 -343 -40 -17 -32 -11 -70 15 -95 l24 -25 311 0 c344 0
353 -1 406 -62 69 -79 45 -204 -49 -256 -29 -16 -81 -17 -608 -17 l-575 0 -42
27 c-88 59 -103 168 -35 249 42 50 77 59 218 59 120 0 127 1 150 25 14 13 25
31 25 39 0 8 5 16 10 18 6 2 -10 27 -35 57 -148 173 -245 361 -245 473 0 26 3
48 6 48 12 0 51 -24 100 -61 28 -22 62 -39 76 -39 28 0 78 34 78 53 1 23 70
107 111 134 87 57 190 64 286 17z"/>
<path d="M1836 3189 c-25 -20 -26 -24 -26 -119 0 -95 1 -99 26 -119 35 -28 69
-26 99 4 23 22 25 32 25 115 0 83 -2 93 -25 115 -30 30 -64 32 -99 4z"/>
<path d="M3185 3185 c-23 -22 -25 -32 -25 -115 0 -83 2 -93 25 -115 30 -30 64
-32 99 -4 25 20 26 24 26 119 0 95 -1 99 -26 119 -35 28 -69 26 -99 -4z"/>
<path d="M2363 3085 c-57 -24 -60 -85 -5 -137 64 -62 95 -73 202 -73 107 0
138 11 203 73 28 27 37 44 37 69 0 50 -37 80 -88 74 -7 -1 -33 -16 -58 -34
-62 -44 -122 -44 -185 -2 -62 42 -71 45 -106 30z"/>
<path d="M2530 2280 c-11 -11 -20 -33 -20 -50 0 -24 -5 -31 -27 -36 -73 -16
-153 -48 -200 -80 -164 -113 -201 -359 -76 -522 34 -45 125 -103 224 -144 l79
-32 0 -194 0 -194 -32 7 c-46 10 -104 40 -165 86 -29 22 -64 44 -79 49 -59 23
-134 -54 -134 -137 0 -104 145 -205 337 -236 69 -11 73 -13 73 -38 0 -32 28
-67 55 -70 61 -5 85 15 85 72 0 31 4 39 18 39 35 0 137 41 189 75 114 76 168
198 161 363 -3 82 -9 106 -33 155 -48 97 -140 168 -297 231 l-38 15 0 171 0
171 38 -7 c20 -3 66 -19 101 -35 86 -39 121 -38 159 5 37 43 49 103 29 143
-28 54 -178 112 -289 113 -36 0 -38 1 -38 33 0 20 -8 41 -18 50 -25 23 -78 21
-102 -3z m0 -455 l0 -145 -49 24 c-69 36 -101 77 -101 131 0 67 63 128 138
134 9 1 12 -34 12 -144z m168 -495 c51 -37 69 -64 78 -116 12 -78 -23 -137
-99 -169 l-37 -15 0 165 c0 91 4 165 8 165 5 0 28 -13 50 -30z"/>
</g>
</svg>
