<svg width="150" height="150" viewBox="0 0 150 150" fill="none" xmlns="http://www.w3.org/2000/svg">
<rect width="150" height="150" rx="16" fill="url(#paint0_linear)"/>
<g opacity="0.2">
<rect x="3.5" y="3.5" width="143" height="143" rx="12.5" stroke="black" stroke-width="7"/>
</g>
<path d="M50.3846 35.0003C49.9769 34.9941 49.5721 35.0757 49.1937 35.2404C48.8154 35.4051 48.471 35.6496 48.1806 35.9598C47.8902 36.2699 47.6597 36.6395 47.5023 37.047C47.3449 37.4546 47.2639 37.8919 47.2639 38.3336C47.2639 38.7754 47.3449 39.2127 47.5023 39.6202C47.6597 40.0278 47.8902 40.3973 48.1806 40.7075C48.471 41.0176 48.8154 41.2622 49.1937 41.4269C49.5721 41.5916 49.9769 41.6732 50.3846 41.6669V49.577C49.0299 48.827 47.5107 48.3336 45.7692 48.3336C39.8579 48.3336 35 53.5962 35 60.0001C35 64.5041 37.7113 68.0063 40.9255 70.8789C44.1396 73.7516 48.161 76.1689 52.1394 78.2161C55.6669 80.0313 59.0726 81.478 61.887 82.5976C65.621 88.0846 68.8462 91.6665 68.8462 91.6665H81.1538C81.1538 91.6665 84.379 88.0846 88.113 82.5976C90.9274 81.478 94.3331 80.0313 97.8606 78.2161C101.839 76.1689 105.86 73.7516 109.075 70.8789C112.289 68.0063 115 64.5041 115 60.0001C115 53.5962 110.142 48.3336 104.231 48.3336C102.489 48.3336 100.97 48.827 99.6154 49.577V41.6669C100.023 41.6732 100.428 41.5916 100.806 41.4269C101.185 41.2622 101.529 41.0176 101.819 40.7075C102.11 40.3973 102.34 40.0278 102.498 39.6202C102.655 39.2127 102.736 38.7754 102.736 38.3336C102.736 37.8919 102.655 37.4546 102.498 37.047C102.34 36.6395 102.11 36.2699 101.819 35.9598C101.529 35.6496 101.185 35.4051 100.806 35.2404C100.428 35.0757 100.023 34.9941 99.6154 35.0003H50.3846ZM45.7692 55.0002C47.9744 55.0002 49.8661 57.0941 51.3582 59.9676C51.3834 60.0161 51.3995 60.0622 51.4243 60.1108C52.4472 64.5726 54.1294 68.8873 56.0877 72.819C55.6458 72.6011 55.2265 72.4284 54.7837 72.2005C51.0698 70.2895 47.3988 68.0194 44.8438 65.7358C42.2887 63.4522 41.1538 61.3295 41.1538 60.0001C41.1538 57.1974 43.1821 55.0002 45.7692 55.0002ZM104.231 55.0002C106.818 55.0002 108.846 57.1974 108.846 60.0001C108.846 61.3295 107.711 63.4522 105.156 65.7358C102.601 68.0194 98.9302 70.2895 95.2163 72.2005C94.7735 72.4284 94.3542 72.6011 93.9123 72.819C95.8706 68.8873 97.5528 64.5726 98.5757 60.1108C98.6005 60.0622 98.6166 60.0161 98.6418 59.9676C100.134 57.0941 102.026 55.0002 104.231 55.0002ZM65.7692 98.3331C62.3692 98.3331 59.6154 101.316 59.6154 105V108.333C59.2077 108.327 58.8028 108.408 58.4245 108.573C58.0461 108.738 57.7017 108.982 57.4114 109.293C57.121 109.603 56.8904 109.972 56.7331 110.38C56.5757 110.787 56.4946 111.225 56.4946 111.666C56.4946 112.108 56.5757 112.545 56.7331 112.953C56.8904 113.36 57.121 113.73 57.4114 114.04C57.7017 114.35 58.0461 114.595 58.4245 114.76C58.8028 114.924 59.2077 115.006 59.6154 115H90.3846C90.7923 115.006 91.1972 114.924 91.5755 114.76C91.9539 114.595 92.2983 114.35 92.5886 114.04C92.879 113.73 93.1096 113.36 93.2669 112.953C93.4243 112.545 93.5054 112.108 93.5054 111.666C93.5054 111.225 93.4243 110.787 93.2669 110.38C93.1096 109.972 92.879 109.603 92.5886 109.293C92.2983 108.982 91.9539 108.738 91.5755 108.573C91.1972 108.408 90.7923 108.327 90.3846 108.333V105C90.3846 101.316 87.6308 98.3331 84.2308 98.3331H65.7692Z" fill="white"/>
<defs>
<linearGradient id="paint0_linear" x1="0" y1="0" x2="150" y2="150" gradientUnits="userSpaceOnUse">
<stop stop-color="#DD2727"/>
<stop offset="1" stop-color="#84CD17"/>
</linearGradient>
</defs>
</svg>
