<svg width="150" height="150" viewBox="0 0 150 150" fill="none" xmlns="http://www.w3.org/2000/svg">
<rect width="150" height="150" rx="16" fill="url(#paint0_linear)"/>
<g opacity="0.2">
<rect x="3.5" y="3.5" width="143" height="143" rx="12.5" stroke="black" stroke-width="7"/>
</g>
<path d="M74.6 38.2C68.4125 38.2 63.4 43.2125 63.4 49.4C63.4 58.9688 84.2 73.4 84.2 73.4C84.2 73.4 105 58.8938 105 49.4C105 43.2125 99.9875 38.2 93.8 38.2C89.7188 38.2 86.1563 40.3875 84.2 43.65C82.2438 40.3875 78.6813 38.2 74.6 38.2ZM106.65 78.25C105.494 78.325 104.369 78.8313 103.5 79.7L87.4 95.8H71.4L68.2 92.6L80.5 90.15C82.2938 89.7938 83.7688 88.45 84.1 86.65C84.6125 83.8563 82.5 81.4 79.8 81.4H57.5C54.1063 81.4 50.85 82.75 48.45 85.15L34.6 99L49 113.4L54.45 107.95C55.05 107.35 55.85 107 56.7 107H86.35C88.05 107 89.65 106.3 90.85 105.1L110.05 85.9C111.875 84.075 111.844 81.1 109.9 79.35C108.988 78.5313 107.806 78.175 106.65 78.25Z" fill="white"/>
<defs>
<linearGradient id="paint0_linear" x1="0" y1="0" x2="150" y2="150" gradientUnits="userSpaceOnUse">
<stop stop-color="#E11E49"/>
<stop offset="1" stop-color="#9434EB"/>
</linearGradient>
</defs>
</svg>
