<svg width="150" height="150" viewBox="0 0 150 150" fill="none" xmlns="http://www.w3.org/2000/svg">
<path d="M72.6698 1.06906C73.9026 -0.356357 76.0974 -0.356354 77.3302 1.06907L90.7007 16.5279C91.4918 17.4425 92.7359 17.8114 93.8909 17.4738L113.415 11.7689C115.215 11.2429 117.062 12.4411 117.336 14.3134L120.308 34.618C120.483 35.8193 121.332 36.8088 122.485 37.1555L141.964 43.0158C143.76 43.5561 144.672 45.5722 143.9 47.2969L135.529 66.0007C135.034 67.1073 135.219 68.4033 136.003 69.3242L149.252 84.889C150.474 86.3242 150.161 88.518 148.589 89.5475L131.534 100.712C130.525 101.373 129.986 102.564 130.153 103.766L132.966 124.094C133.225 125.969 131.788 127.644 129.914 127.651L109.589 127.732C108.387 127.737 107.296 128.445 106.792 129.547L98.2758 148.184C97.4905 149.902 95.3847 150.527 93.8041 149.51L76.6624 138.481C75.6483 137.829 74.3517 137.829 73.3376 138.481L56.1959 149.51C54.6153 150.527 52.5095 149.902 51.7242 148.184L43.2081 129.547C42.7043 128.445 41.6135 127.737 40.411 127.732L20.0862 127.651C18.2121 127.644 16.7748 125.968 17.0342 124.094L19.8475 103.766C20.0139 102.564 19.4753 101.373 18.4663 100.712L1.41124 89.5475C-0.161359 88.518 -0.473708 86.3242 0.747986 84.889L13.9974 69.3242C14.7812 68.4033 14.9657 67.1073 14.4705 66.0007L6.10019 47.2968C5.32838 45.5722 6.24011 43.5561 8.03622 43.0158L27.5152 37.1555C28.6676 36.8088 29.5167 35.8193 29.6925 34.618L32.6643 14.3134C32.9384 12.4411 34.7847 11.2429 36.585 11.7689L56.1091 17.4739C57.2642 17.8114 58.5083 17.4425 59.2993 16.5279L72.6698 1.06906Z" fill="url(#paint0_linear)"/>
<g opacity="0.2">
<path d="M61.9465 18.8175L75 3.72515L88.0535 18.8175C89.735 20.7616 92.3945 21.5575 94.8726 20.8334L113.937 15.2627L116.844 35.1249C117.215 37.6551 119.008 39.7646 121.477 40.5072L140.538 46.2416L132.335 64.5711C131.29 66.9054 131.676 69.6411 133.338 71.5929L146.323 86.8476L129.617 97.7839C127.466 99.1918 126.335 101.715 126.686 104.246L129.441 124.153L109.575 124.232C106.993 124.242 104.674 125.762 103.609 128.092L95.2875 146.302L78.5562 135.538C76.3886 134.143 73.6114 134.143 71.4438 135.538L54.7126 146.302L46.3915 128.093C45.3263 125.762 43.0067 124.242 40.425 124.232L20.5595 124.153L23.3144 104.246C23.6647 101.715 22.5339 99.1918 20.3832 97.7839L3.67714 86.8475L16.6625 71.5929C18.3239 69.6411 18.7099 66.9054 17.6652 64.5711L9.46246 46.2416L28.5235 40.5072C30.9917 39.7646 32.7853 37.6551 33.1556 35.1249L36.0627 15.2627L55.1274 20.8334C57.6055 21.5575 60.2651 20.7616 61.9465 18.8175ZM146.587 87.1577C146.586 87.1572 146.586 87.1568 146.586 87.1563L146.587 87.1577ZM146.67 86.6203C146.671 86.6199 146.671 86.6195 146.672 86.6191L146.67 86.6203ZM54.3022 146.566C54.3026 146.566 54.3029 146.566 54.3033 146.566L54.3022 146.566Z" stroke="black" stroke-width="7"/>
</g>
<path d="M93.16 106.2H63.52C55.7809 106.2 49.48 99.9051 49.48 92.16V77.4984C49.48 74.4698 50.3636 71.7033 52.1125 69.2597L69.5894 45.2198C70.6802 43.3978 72.5205 42.24 74.44 42.24C77.0298 42.24 80.68 44.4642 80.68 49.4184C80.68 50.8322 80.2961 51.7828 79.9183 52.703C79.8269 52.9223 79.7355 53.1478 79.6441 53.3916C79.0591 55.0308 75.9695 62.0142 74.3486 65.64C79.1505 65.6461 89.7902 65.6766 93.8303 65.7984C98.2788 65.7984 100.96 68.8087 100.96 71.7215C100.96 72.7209 100.795 74.0859 100.655 75.0487C102.026 75.8653 104.08 77.6203 104.08 80.7708C104.08 82.9645 103.026 84.5855 102.014 85.6458C103.044 86.5964 104.08 88.0894 104.08 90.2892C104.08 93.4214 101.923 95.3165 100.381 96.2794C100.686 97.0959 100.96 98.1928 100.96 99.4908C100.96 102.294 97.9923 106.2 93.16 106.2Z" fill="white"/>
<circle cx="117" cy="117" r="31" fill="#334155" stroke="white" stroke-width="4"/>
<path d="M104.774 126H101.105V111.857L96.7256 113.216V110.232L104.381 107.49H104.774V126ZM123.233 118.357C123.233 120.913 122.704 122.868 121.646 124.223C120.589 125.577 119.04 126.254 117 126.254C114.986 126.254 113.445 125.59 112.379 124.261C111.312 122.932 110.767 121.028 110.741 118.548V115.146C110.741 112.564 111.274 110.605 112.341 109.268C113.416 107.93 114.96 107.262 116.975 107.262C118.989 107.262 120.529 107.926 121.596 109.255C122.662 110.575 123.208 112.475 123.233 114.955V118.357ZM119.564 114.625C119.564 113.093 119.353 111.98 118.93 111.286C118.515 110.584 117.863 110.232 116.975 110.232C116.111 110.232 115.472 110.567 115.058 111.235C114.651 111.896 114.436 112.932 114.41 114.346V118.84C114.41 120.346 114.613 121.468 115.02 122.204C115.434 122.932 116.094 123.296 117 123.296C117.897 123.296 118.545 122.945 118.942 122.242C119.34 121.54 119.548 120.465 119.564 119.018V114.625ZM138.163 118.357C138.163 120.913 137.634 122.868 136.576 124.223C135.518 125.577 133.969 126.254 131.93 126.254C129.915 126.254 128.375 125.59 127.309 124.261C126.242 122.932 125.696 121.028 125.671 118.548V115.146C125.671 112.564 126.204 110.605 127.271 109.268C128.345 107.93 129.89 107.262 131.904 107.262C133.919 107.262 135.459 107.926 136.525 109.255C137.592 110.575 138.138 112.475 138.163 114.955V118.357ZM134.494 114.625C134.494 113.093 134.283 111.98 133.859 111.286C133.445 110.584 132.793 110.232 131.904 110.232C131.041 110.232 130.402 110.567 129.987 111.235C129.581 111.896 129.365 112.932 129.34 114.346V118.84C129.34 120.346 129.543 121.468 129.949 122.204C130.364 122.932 131.024 123.296 131.93 123.296C132.827 123.296 133.474 122.945 133.872 122.242C134.27 121.54 134.477 120.465 134.494 119.018V114.625Z" fill="white"/>
<defs>
<linearGradient id="paint0_linear" x1="0" y1="0" x2="150" y2="150" gradientUnits="userSpaceOnUse">
<stop offset="0.140625" stop-color="#F5405F"/>
<stop offset="0.869792" stop-color="#FBCD16"/>
</linearGradient>
</defs>
</svg>
