<svg width="150" height="150" viewBox="0 0 150 150" fill="none" xmlns="http://www.w3.org/2000/svg">
<circle cx="75" cy="75" r="75" fill="url(#paint0_linear)"/>
<g opacity="0.2">
<circle cx="75" cy="75" r="71.5" stroke="black" stroke-width="7"/>
</g>
<path d="M75.0274 39.0926C60.0816 39.0926 47.2512 48.2715 41.8713 61.3043C41.7053 61.6847 41.6168 62.0945 41.611 62.5095C41.6053 62.9246 41.6824 63.3366 41.8379 63.7215C41.9934 64.1064 42.2241 64.4564 42.5165 64.751C42.809 65.0456 43.1572 65.2789 43.541 65.4372C43.9247 65.5955 44.3362 65.6757 44.7513 65.673C45.1663 65.6703 45.5767 65.5848 45.9584 65.4215C46.34 65.2583 46.6852 65.0205 46.9738 64.7221C47.2624 64.4237 47.4886 64.0708 47.6391 63.6839C52.0809 52.9236 62.6327 45.3326 75.0274 45.3326C91.4342 45.3326 104.667 58.5659 104.667 74.9726C104.667 91.3793 91.4342 104.613 75.0274 104.613C62.6344 104.613 52.0808 97.0245 47.6391 86.2643C47.4886 85.8774 47.2624 85.5245 46.9738 85.2261C46.6852 84.9278 46.34 84.69 45.9584 84.5267C45.5767 84.3634 45.1663 84.2779 44.7513 84.2752C44.3362 84.2726 43.9247 84.3527 43.541 84.511C43.1572 84.6693 42.809 84.9026 42.5165 85.1972C42.2241 85.4918 41.9934 85.8418 41.8379 86.2267C41.6824 86.6116 41.6053 87.0236 41.611 87.4387C41.6168 87.8537 41.7053 88.2635 41.8713 88.6439C47.2513 101.677 60.083 110.853 75.0274 110.853C94.8065 110.853 110.907 94.7516 110.907 74.9726C110.907 55.1935 94.8065 39.0926 75.0274 39.0926ZM78.0621 60.9021C77.4415 60.9023 76.8349 61.0875 76.3201 61.4342C75.8053 61.7809 75.4055 62.2732 75.172 62.8483C74.9384 63.4233 74.8817 64.055 75.009 64.6625C75.1363 65.2699 75.4419 65.8256 75.8867 66.2585L81.4807 71.8526H42.2126C41.7992 71.8467 41.3887 71.9231 41.005 72.0773C40.6214 72.2315 40.2722 72.4604 39.9777 72.7507C39.6833 73.041 39.4495 73.3869 39.2899 73.7683C39.1303 74.1498 39.0482 74.5591 39.0482 74.9726C39.0482 75.3861 39.1303 75.7954 39.2899 76.1769C39.4495 76.5583 39.6833 76.9042 39.9777 77.1945C40.2722 77.4848 40.6214 77.7137 41.005 77.8679C41.3887 78.0221 41.7992 78.0984 42.2126 78.0926H81.4807L75.8867 83.6867C75.5872 83.9741 75.3482 84.3185 75.1835 84.6995C75.0188 85.0806 74.9318 85.4906 74.9276 85.9057C74.9234 86.3208 75.002 86.7326 75.1589 87.1169C75.3158 87.5012 75.5478 87.8503 75.8413 88.1439C76.1349 88.4374 76.484 88.6694 76.8683 88.8263C77.2526 88.9832 77.6644 89.0618 78.0795 89.0576C78.4945 89.0534 78.9046 88.9664 79.2856 88.8017C79.6667 88.637 80.011 88.398 80.2985 88.0985L91.2185 77.1785C91.8034 76.5934 92.132 75.7999 92.132 74.9726C92.132 74.1453 91.8034 73.3518 91.2185 72.7667L80.2985 61.8467C80.0078 61.5478 79.6601 61.3102 79.276 61.148C78.8918 60.9857 78.4791 60.9021 78.0621 60.9021V60.9021Z" fill="white"/>
<circle cx="117" cy="117" r="31" fill="#334155" stroke="white" stroke-width="4"/>
<path d="M125.073 107.149L116.001 128H111.086L120.174 108.31H108.508V104.539H125.073V107.149Z" fill="white"/>
<defs>
<linearGradient id="paint0_linear" x1="0" y1="0" x2="150" y2="150" gradientUnits="userSpaceOnUse">
<stop stop-color="#10776F"/>
<stop offset="1" stop-color="#4BDF80"/>
</linearGradient>
</defs>
</svg>
