<svg width="150" height="150" viewBox="0 0 150 150" fill="none" xmlns="http://www.w3.org/2000/svg">
<circle cx="75" cy="75" r="75" fill="url(#paint0_linear)"/>
<g opacity="0.2">
<circle cx="75" cy="75" r="71.5" stroke="black" stroke-width="7"/>
</g>
<path d="M75 40C55.6695 40 40 55.6695 40 75C40 94.3305 55.6695 110 75 110C94.3305 110 110 94.3305 110 75C110 55.6695 94.3305 40 75 40ZM86.5255 91.4745L71.5 76.449V54H78.5V73.551L91.4745 86.5255L86.5255 91.4745Z" fill="white"/>
<circle cx="117" cy="117" r="31" fill="#334155" stroke="white" stroke-width="4"/>
<path d="M113.858 114.207H116.339C117.521 114.207 118.396 113.912 118.966 113.321C119.535 112.73 119.82 111.946 119.82 110.968C119.82 110.023 119.535 109.287 118.966 108.761C118.407 108.234 117.634 107.971 116.646 107.971C115.754 107.971 115.007 108.218 114.406 108.712C113.804 109.196 113.503 109.83 113.503 110.614H108.847C108.847 109.389 109.174 108.293 109.83 107.327C110.496 106.349 111.419 105.586 112.601 105.039C113.793 104.491 115.104 104.217 116.533 104.217C119.014 104.217 120.958 104.813 122.366 106.005C123.773 107.187 124.477 108.82 124.477 110.904C124.477 111.978 124.149 112.966 123.494 113.869C122.838 114.771 121.979 115.464 120.916 115.947C122.237 116.42 123.22 117.129 123.864 118.074C124.52 119.02 124.847 120.137 124.847 121.426C124.847 123.51 124.084 125.18 122.559 126.437C121.044 127.694 119.036 128.322 116.533 128.322C114.191 128.322 112.273 127.705 110.78 126.469C109.298 125.234 108.557 123.601 108.557 121.571H113.213C113.213 122.452 113.541 123.171 114.196 123.73C114.862 124.289 115.679 124.568 116.646 124.568C117.752 124.568 118.617 124.278 119.24 123.698C119.874 123.107 120.19 122.328 120.19 121.361C120.19 119.02 118.901 117.849 116.323 117.849H113.858V114.207Z" fill="white"/>
<defs>
<linearGradient id="paint0_linear" x1="0" y1="0" x2="150" y2="150" gradientUnits="userSpaceOnUse">
<stop stop-color="#344256"/>
<stop offset="1" stop-color="#65758C"/>
</linearGradient>
</defs>
</svg>
