<svg width="150" height="150" viewBox="0 0 150 150" fill="none" xmlns="http://www.w3.org/2000/svg">
<rect width="150" height="150" rx="16" fill="url(#paint0_linear)"/>
<g opacity="0.2">
<rect x="3.5" y="3.5" width="143" height="143" rx="12.5" stroke="black" stroke-width="7"/>
</g>
<path d="M76.2 38.2C75.2375 38.2 74.2813 38.5625 73.55 39.3L53.15 59.65L48.6 64.25L47 56.8C46.0313 52.425 41.5438 49.825 37.25 51.1L36.2 51.4L39.9 77.35C39.4938 81.35 40.8375 85.4875 43.9 88.55L49.7 94.35C52.0375 96.6875 55.05 98.0125 58.1 98.3L46.05 77.3C45.2625 75.925 45.6063 74.1813 46.85 73.2L47.7 72.55C49.6438 71.0188 51.9813 70.2 54.45 70.2C58.0813 70.2 61.4625 71.9938 63.5 75L64.5 76.45L64.75 75.9L76.05 49.65L64.85 60.85L63.75 59.75L78.85 44.6C80.3188 43.1313 80.3188 40.7688 78.85 39.3C78.1188 38.5688 77.1625 38.2 76.2 38.2ZM86.85 40.5C85.85 40.5 84.8625 40.8875 84.1 41.65L79.95 45.75C80.7563 45.4313 81.65 45.25 82.55 45.25C83.5 45.25 84.425 45.4188 85.3 45.8C85.9938 46.1 86.6 46.5125 87.15 47C87.9563 45.5875 89.225 44.5375 90.7 43.95C90.6 43.1063 90.2438 42.2938 89.6 41.65C88.8375 40.8875 87.85 40.5 86.85 40.5ZM93.35 46.65C91.8313 46.6375 90.3938 47.5125 89.75 49L78.95 73.95L77.5 73.35L86 53.7C86.825 51.7938 85.9063 49.575 84 48.75C82.0938 47.925 79.925 48.7938 79.1 50.7L67.65 77.15L65.1 83.1L60.85 76.8C58.3375 73.0875 53.225 72.275 49.7 75.05L48.85 75.7L61.85 98.45C62.95 102.319 65.725 105.681 69.7 107.4L77.25 110.7C84.1688 113.688 92.2125 110.463 95.2 103.55L103.4 84.5L109.5 70.45C110.344 68.4875 109.413 66.1938 107.45 65.35C105.488 64.5063 103.244 65.3875 102.4 67.35L96.3 81.45L94.95 80.85L104.55 58.65C105.413 56.6563 104.494 54.3063 102.5 53.45C100.506 52.5938 98.1563 53.5063 97.3 55.5L87.7 77.75L86.15 77.05L96.9 52.1C97.7563 50.1188 96.8813 47.8063 94.9 46.95C94.4063 46.7375 93.8563 46.6563 93.35 46.65Z" fill="white"/>
<defs>
<linearGradient id="paint0_linear" x1="0" y1="0" x2="150" y2="150" gradientUnits="userSpaceOnUse">
<stop stop-color="#6E29DA"/>
<stop offset="1" stop-color="#23D4EF"/>
</linearGradient>
</defs>
</svg>
