<svg width="150" height="150" viewBox="0 0 150 150" fill="none" xmlns="http://www.w3.org/2000/svg">
<circle cx="75" cy="75" r="75" fill="url(#paint0_linear)"/>
<g opacity="0.2">
<circle cx="75" cy="75" r="71.5" stroke="black" stroke-width="7"/>
</g>
<path d="M75 40.5048C55.954 40.5048 40.5048 55.954 40.5048 75C40.5048 94.046 55.954 109.495 75 109.495C94.046 109.495 109.495 94.046 109.495 75C109.495 55.954 94.046 40.5048 75 40.5048ZM93.131 64.3254L74.6319 91.6061C74.0851 92.4159 73.2122 92.9628 72.3498 92.9628C71.4874 92.9628 70.5409 92.4895 69.9309 91.89L59.0775 81.0262C58.3414 80.29 58.3414 79.0805 59.0775 78.3444L61.7593 75.6626C62.4955 74.9264 63.7049 74.9264 64.4306 75.6626L71.4979 82.7194L86.8525 60.0661C87.4414 59.2037 88.6298 58.9829 89.4922 59.5613L92.6367 61.6962C93.4886 62.2747 93.72 63.4631 93.131 64.3254Z" fill="white"/>
<circle cx="117" cy="117" r="31" fill="#334155" stroke="white" stroke-width="4"/>
<path d="M110.958 128H106.301V110.05L100.742 111.774V107.987L110.458 104.507H110.958V128ZM134.386 118.3C134.386 121.544 133.715 124.025 132.372 125.744C131.029 127.463 129.063 128.322 126.475 128.322C123.918 128.322 121.963 127.479 120.609 125.792C119.256 124.106 118.563 121.689 118.531 118.542V114.223C118.531 110.947 119.208 108.46 120.561 106.763C121.925 105.065 123.886 104.217 126.442 104.217C128.999 104.217 130.954 105.06 132.308 106.747C133.661 108.422 134.354 110.834 134.386 113.981V118.3ZM129.729 113.562C129.729 111.618 129.461 110.206 128.924 109.325C128.397 108.433 127.57 107.987 126.442 107.987C125.347 107.987 124.536 108.412 124.009 109.26C123.494 110.098 123.22 111.414 123.188 113.208V118.912C123.188 120.824 123.445 122.248 123.961 123.182C124.487 124.106 125.325 124.568 126.475 124.568C127.613 124.568 128.435 124.122 128.94 123.23C129.445 122.339 129.708 120.975 129.729 119.138V113.562Z" fill="white"/>
<defs>
<linearGradient id="paint0_linear" x1="0" y1="0" x2="150" y2="150" gradientUnits="userSpaceOnUse">
<stop stop-color="#125F5A"/>
<stop offset="1" stop-color="#23D4EF"/>
</linearGradient>
</defs>
</svg>
