<svg width="150" height="150" viewBox="0 0 150 150" fill="none" xmlns="http://www.w3.org/2000/svg">
<circle cx="75" cy="75" r="75" fill="url(#paint0_linear)"/>
<g opacity="0.2">
<circle cx="75" cy="75" r="71.5" stroke="black" stroke-width="7"/>
</g>
<path d="M75 40C55.6712 40 40 55.6712 40 75C40 94.3288 55.6712 110 75 110C94.3288 110 110 94.3288 110 75C110 55.6712 94.3288 40 75 40ZM75 104.167C64.3192 104.167 57.5 98.3333 57.5 98.3333C57.5 89.2188 69.4525 90.7238 71.3542 85.5758V83.75C64.4679 83.75 60.5742 80.3142 60.5742 80.3142C64.1733 77.3188 59.1888 56.485 71.4446 56.485C71.4446 56.485 72.8621 54.5833 75 54.5833C89.98 54.5833 85.2783 77.205 89.1546 80.3842C89.1546 80.3842 85.5671 83.75 78.6458 83.75V85.5758C80.5475 90.7238 92.5 89.2188 92.5 98.3333C92.5 98.3333 85.6808 104.167 75 104.167Z" fill="white"/>
<circle cx="117" cy="117" r="31" fill="#334155" stroke="white" stroke-width="4"/>
<path d="M110.958 128H106.301V110.05L100.742 111.774V107.987L110.458 104.507H110.958V128ZM134.386 118.3C134.386 121.544 133.715 124.025 132.372 125.744C131.029 127.463 129.063 128.322 126.475 128.322C123.918 128.322 121.963 127.479 120.609 125.792C119.256 124.106 118.563 121.689 118.531 118.542V114.223C118.531 110.947 119.208 108.46 120.561 106.763C121.925 105.065 123.886 104.217 126.442 104.217C128.999 104.217 130.954 105.06 132.308 106.747C133.661 108.422 134.354 110.834 134.386 113.981V118.3ZM129.729 113.562C129.729 111.618 129.461 110.206 128.924 109.325C128.397 108.433 127.57 107.987 126.442 107.987C125.347 107.987 124.536 108.412 124.009 109.26C123.494 110.098 123.22 111.414 123.188 113.208V118.912C123.188 120.824 123.445 122.248 123.961 123.182C124.487 124.106 125.325 124.568 126.475 124.568C127.613 124.568 128.435 124.122 128.94 123.23C129.445 122.339 129.708 120.975 129.729 119.138V113.562Z" fill="white"/>
<defs>
<linearGradient id="paint0_linear" x1="0" y1="0" x2="150" y2="150" gradientUnits="userSpaceOnUse">
<stop stop-color="#861A90"/>
<stop offset="1" stop-color="#F04545"/>
</linearGradient>
</defs>
</svg>
