<svg width="150" height="150" viewBox="0 0 150 150" fill="none" xmlns="http://www.w3.org/2000/svg">
<circle cx="75" cy="75" r="75" fill="url(#paint0_linear)"/>
<g opacity="0.2">
<circle cx="75" cy="75" r="71.5" stroke="black" stroke-width="7"/>
</g>
<path d="M75 40C55.6695 40 40 55.6695 40 75C40 94.3305 55.6695 110 75 110C94.3305 110 110 94.3305 110 75C110 55.6695 94.3305 40 75 40ZM86.5255 91.4745L71.5 76.449V54H78.5V73.551L91.4745 86.5255L86.5255 91.4745Z" fill="white"/>
<circle cx="117" cy="117" r="31" fill="#334155" stroke="white" stroke-width="4"/>
<path d="M104.383 114.207H106.865C108.046 114.207 108.922 113.912 109.491 113.321C110.061 112.73 110.345 111.946 110.345 110.968C110.345 110.023 110.061 109.287 109.491 108.761C108.933 108.234 108.159 107.971 107.171 107.971C106.279 107.971 105.533 108.218 104.931 108.712C104.33 109.196 104.029 109.83 104.029 110.614H99.3721C99.3721 109.389 99.6997 108.293 100.355 107.327C101.021 106.349 101.945 105.586 103.126 105.039C104.319 104.491 105.629 104.217 107.058 104.217C109.54 104.217 111.484 104.813 112.891 106.005C114.298 107.187 115.002 108.82 115.002 110.904C115.002 111.978 114.674 112.966 114.019 113.869C113.364 114.771 112.504 115.464 111.441 115.947C112.762 116.42 113.745 117.129 114.39 118.074C115.045 119.02 115.373 120.137 115.373 121.426C115.373 123.51 114.61 125.18 113.084 126.437C111.57 127.694 109.561 128.322 107.058 128.322C104.716 128.322 102.799 127.705 101.306 126.469C99.8232 125.234 99.082 123.601 99.082 121.571H103.739C103.739 122.452 104.066 123.171 104.722 123.73C105.388 124.289 106.204 124.568 107.171 124.568C108.277 124.568 109.142 124.278 109.765 123.698C110.399 123.107 110.716 122.328 110.716 121.361C110.716 119.02 109.427 117.849 106.849 117.849H104.383V114.207ZM134.386 118.3C134.386 121.544 133.715 124.025 132.372 125.744C131.029 127.463 129.063 128.322 126.475 128.322C123.918 128.322 121.963 127.479 120.609 125.792C119.256 124.106 118.563 121.689 118.531 118.542V114.223C118.531 110.947 119.208 108.46 120.561 106.763C121.925 105.065 123.886 104.217 126.442 104.217C128.999 104.217 130.954 105.06 132.308 106.747C133.661 108.422 134.354 110.834 134.386 113.981V118.3ZM129.729 113.562C129.729 111.618 129.461 110.206 128.924 109.325C128.397 108.433 127.57 107.987 126.442 107.987C125.347 107.987 124.536 108.412 124.009 109.26C123.494 110.098 123.22 111.414 123.188 113.208V118.912C123.188 120.824 123.445 122.248 123.961 123.182C124.487 124.106 125.325 124.568 126.475 124.568C127.613 124.568 128.435 124.122 128.94 123.23C129.445 122.339 129.708 120.975 129.729 119.138V113.562Z" fill="white"/>
<defs>
<linearGradient id="paint0_linear" x1="0" y1="0" x2="150" y2="150" gradientUnits="userSpaceOnUse">
<stop stop-color="#5C22B7"/>
<stop offset="1" stop-color="#0FA5EA"/>
</linearGradient>
</defs>
</svg>
