<svg width="150" height="150" viewBox="0 0 150 150" fill="none" xmlns="http://www.w3.org/2000/svg">
<rect width="150" height="150" rx="16" fill="url(#paint0_linear)"/>
<g opacity="0.2">
<rect x="3.5" y="3.5" width="143" height="143" rx="12.5" stroke="black" stroke-width="7"/>
</g>
<path d="M74.3812 39.8187L57.0062 58.2687L60.8875 39.8187H74.3812ZM89.025 39.8187L92.9812 58.2687L75.7937 39.8187H89.025ZM92.1875 62.2H57.8L75 43.7062L92.1875 62.2ZM52.9375 62.2H37.0125L57.4437 40.7062L52.9375 62.2ZM53.125 65.4L68.6937 106.45L36.8937 65.4H53.125ZM56.6 65.4H93.4L75 113.106L56.6 65.4ZM97.05 62.2L92.4625 40.6187L112.856 62.2H97.05ZM81.3187 106.419L96.8812 65.4H113.05L81.3187 106.419Z" fill="white"/>
<defs>
<linearGradient id="paint0_linear" x1="0" y1="0" x2="150" y2="150" gradientUnits="userSpaceOnUse">
<stop stop-color="#0F7591"/>
<stop offset="1" stop-color="#A3E636"/>
</linearGradient>
</defs>
</svg>
